<svg width="244" height="120" viewBox="0 0 244 120" fill="none" xmlns="http://www.w3.org/2000/svg">
<path d="M10.708 2.17871V6.4707H12.6709V7.4375H10.708V11.9346H9.56543V2.17871H10.708ZM0.556641 4.71289V3.77539H3.86719V2.17871H5.00977V3.77539H8.32031V4.71289H0.556641ZM1.30371 7.8623C1.29639 6.38281 2.55615 5.43066 4.43848 5.43066C6.29883 5.43066 7.55859 6.38281 7.57324 7.8623C7.55859 9.32715 6.29883 10.272 4.43848 10.2646C2.55615 10.272 1.29639 9.32715 1.30371 7.8623ZM2.40234 7.8623C2.39502 8.77783 3.20801 9.37109 4.43848 9.35645C5.6543 9.37109 6.47461 8.77783 6.48926 7.8623C6.47461 6.93213 5.6543 6.33154 4.43848 6.33887C3.20801 6.33154 2.39502 6.93213 2.40234 7.8623ZM2.56348 14.9082V11.1582H3.69141V13.9414H11.3086V14.9082H2.56348ZM23.8477 2.80859V3.74609C23.8477 4.71289 23.8477 5.88477 23.5254 7.45215H25.415V8.38965H19.9951V10.792H23.9355V15.1865H22.7783V11.7441H14.7217V10.792H18.8525V8.38965H13.4912V7.45215H22.3682C22.7124 5.86279 22.7124 4.71289 22.7051 3.74609H15V2.80859H23.8477ZM30.7178 3.11621C32.7612 3.12354 34.2114 4.36865 34.2188 6.17773C34.2114 7.99414 32.7612 9.23193 30.7178 9.23926C28.6597 9.23193 27.1948 7.99414 27.2021 6.17773C27.1948 4.36865 28.6597 3.12354 30.7178 3.11621ZM26.5283 11.3633C28.9307 11.3706 32.2485 11.3486 35.127 10.9238L35.2148 11.7734C32.2339 12.3301 29.0332 12.3447 26.6895 12.3447L26.5283 11.3633ZM28.3301 6.17773C28.3228 7.39355 29.3262 8.22852 30.7178 8.22852C32.0947 8.22852 33.0981 7.39355 33.0908 6.17773C33.0981 4.96924 32.0947 4.12695 30.7178 4.12695C29.3262 4.12695 28.3228 4.96924 28.3301 6.17773ZM35.9912 15.2158V2.16406H37.1338V15.2158H35.9912ZM51.3428 12.6084V13.5752H39.4189V12.6084H42.7734V10.1328H40.9131V6.11914H48.7061V4.08301H40.8838V3.13086H49.834V7.07129H42.0557V9.18066H50.1416V10.1328H48.1055V12.6084H51.3428ZM43.9014 12.6084H46.9775V10.1328H43.9014V12.6084ZM63.1494 2.16406V15.1865H61.9922V2.16406H63.1494ZM52.5439 11.8027C56.0669 10.1328 57.8687 7.63525 58.125 4.52246H53.1445V3.58496H59.2969C59.2822 7.32764 57.5391 10.6455 53.1738 12.7402L52.5439 11.8027ZM76.1133 2.16406V15.1865H74.9561V2.16406H76.1133ZM65.5078 11.8027C69.0308 10.1328 70.8325 7.63525 71.0889 4.52246H66.1084V3.58496H72.2607C72.2461 7.32764 70.5029 10.6455 66.1377 12.7402L65.5078 11.8027ZM88.4912 2.16406V6.13379H90.4541V7.10059H88.4912V11.7734H87.3486V2.16406H88.4912ZM78.5596 6.29492C78.5522 4.40527 80.0317 3.09424 81.9727 3.08691C83.9282 3.09424 85.3857 4.40527 85.4004 6.29492C85.3857 8.17725 83.9282 9.50293 81.9727 9.50293C80.0317 9.50293 78.5522 8.17725 78.5596 6.29492ZM79.6875 6.29492C79.6802 7.57666 80.6836 8.49219 81.9727 8.49219C83.2837 8.49219 84.2651 7.57666 84.2725 6.29492C84.2651 5.00586 83.2837 4.09766 81.9727 4.09766C80.6836 4.09766 79.6802 5.00586 79.6875 6.29492ZM80.3467 14.9082V10.7773H81.4746V13.9414H89.0918V14.9082H80.3467ZM102.07 2.17871V11.7295H100.913V6.73438H98.2324V5.78223H100.913V2.17871H102.07ZM91.333 9.12207C93.252 8.44824 94.6436 6.72705 94.6436 4.85938V4.18555H91.6992V3.2334H98.7158V4.18555H95.8008V4.85938C95.8008 6.54395 97.1045 8.17725 99.0088 8.8291L98.4082 9.75195C96.9434 9.21729 95.8081 8.12598 95.2441 6.77832C94.6802 8.28711 93.479 9.48096 91.9336 10.0596L91.333 9.12207ZM93.7061 14.9082V10.8652H94.8633V13.9414H102.437V14.9082H93.7061ZM115.034 2.16406V9.92773H113.877V6.51465H111.255V5.5625H113.877V2.16406H115.034ZM104.297 8.8877C106.23 8.19189 107.607 6.42676 107.607 4.56641V4.08301H104.663V3.11621H111.68V4.08301H108.765V4.55176C108.765 6.25098 110.068 7.86963 111.973 8.52148L111.372 9.44434C109.915 8.91699 108.779 7.81836 108.215 6.47803C107.659 8.00146 106.45 9.21729 104.897 9.81055L104.297 8.8877ZM106.348 12.7549C106.34 11.2241 108.003 10.3306 110.713 10.3379C113.416 10.3306 115.078 11.2241 115.078 12.7549C115.078 14.293 113.416 15.1719 110.713 15.1865C108.003 15.1719 106.34 14.293 106.348 12.7549ZM107.49 12.7549C107.483 13.6997 108.713 14.271 110.713 14.2637C112.705 14.271 113.936 13.6997 113.936 12.7549C113.936 11.8027 112.705 11.2314 110.713 11.2314C108.713 11.2314 107.483 11.8027 107.49 12.7549ZM129.126 12.5645V13.5166H117.202V12.5645H122.563V9.75195H118.608V3.08691H119.766V5.44531H126.533V3.08691H127.661V9.75195H123.691V12.5645H129.126ZM119.766 8.81445H126.533V6.38281H119.766V8.81445ZM140.903 2.17871V12.0664H139.746V10.7188H137.051V9.88379H139.746V2.17871H140.903ZM130.093 8.21387C132.517 8.19922 135.784 8.17725 138.574 7.83301L138.647 8.66797C137.49 8.85107 136.267 8.96826 135.073 9.0415V11.6123H133.916V9.1001C132.598 9.15137 131.345 9.15137 130.254 9.15137L130.093 8.21387ZM131.147 4.97656C131.14 3.60693 132.444 2.70605 134.37 2.70605C136.282 2.70605 137.585 3.60693 137.593 4.97656C137.585 6.36816 136.282 7.23242 134.37 7.23242C132.444 7.23242 131.14 6.36816 131.147 4.97656ZM131.968 14.9082V11.0996H133.125V13.9414H141.226V14.9082H131.968ZM132.246 4.97656C132.231 5.82617 133.096 6.37549 134.37 6.38281C135.608 6.37549 136.487 5.82617 136.494 4.97656C136.487 4.1416 135.608 3.57031 134.37 3.58496C133.096 3.57031 132.231 4.1416 132.246 4.97656Z" fill="#101010"/>
<path d="M26.8438 40.25V43.4688H20.75V52.875H16.6875V43.4688H10.875V52.875H6.78125V43.4688H0.8125V40.25H26.8438ZM3.4375 31.8125C3.42188 27.8906 7.64062 25.3906 13.75 25.375C19.8594 25.3906 24.125 27.8906 24.125 31.8125C24.125 35.6406 19.8594 38.0781 13.75 38.0625C7.64062 38.0781 3.42188 35.6406 3.4375 31.8125ZM7.53125 31.8125C7.51562 33.8125 9.9375 34.9219 13.75 34.9375C17.5938 34.9219 20 33.8125 20 31.8125C20 29.7188 17.5938 28.5781 13.75 28.5625C9.9375 28.5781 7.51562 29.7188 7.53125 31.8125ZM52.4688 24.4688V40.1875H48.5V33.1562H43.9062V29.9062H48.5V24.4688H52.4688ZM29.5625 28.6562V25.5H42.4688V34H33.5625V36.4688C37.875 36.4375 40.9688 36.3125 44.5312 35.75L44.8125 38.9375C40.75 39.5781 37.1719 39.6719 31.9375 39.6562H29.625V31.0625H38.5625V28.6562H29.5625ZM33.375 52.5625V41.3438H37.3125V43.9375H48.5312V41.3438H52.4688V52.5625H33.375ZM37.3125 49.375H48.5312V46.9688H37.3125V49.375ZM150.688 25.2188V28.1875H146.969V31.9375H150.5V34.9062H129.531V31.9375H133.031V28.1875H129.344V25.2188H150.688ZM127.062 39.5312V36.4062H153V39.5312H127.062ZM130.062 44.0312V41.1562H149.844V48.1875H134V49.75H150.594V52.6875H130.094V45.4688H145.906V44.0312H130.062ZM137.031 31.9375H142.969V28.1875H137.031V31.9375ZM179.156 24.4688V43.5625H175.375V34.5625H172.906V41.2188H169.188V24.9688H172.906V31.3438H175.375V24.4688H179.156ZM155.844 29.5938V26.4062H166.688V35.0625H159.719V37.8594C162.828 37.8125 165.156 37.6406 167.844 37.125L168.188 40.25C164.922 40.9062 162.125 40.9844 157.844 41H155.875V32.1875H162.844V29.5938H155.844ZM158.125 49.6562C164.203 48.8906 167.281 45.8125 167.281 42.8125V42.3125H171.281V42.8125C171.266 45.8125 174.328 48.8906 180.469 49.6562L178.875 52.75C174.344 52.1094 171.031 50.1875 169.297 47.5312C167.531 50.1875 164.219 52.1094 159.719 52.75L158.125 49.6562ZM208.312 38.2188V41.375H182.375V38.2188H193.312V35.9375H184.844V32.75H188.344V28.4062H184.656V25.2188H206V28.4062H202.281V32.75H205.812V35.9375H197.312V38.2188H208.312ZM185.375 52.5625V43.3125H205.219V52.5625H185.375ZM189.312 49.375H201.312V46.4375H189.312V49.375ZM192.344 32.75H198.281V28.4062H192.344V32.75Z" fill="#101010"/>
<path d="M57.2188 27.375H63.0312L69.3125 42.7188H69.5625L75.8438 27.375H81.6562V50H77.0938V35.1875H76.9062L71 49.9062H67.875L61.9688 35.125H61.7812V50H57.2188V27.375ZM93.4375 50H85.4688V27.375H93.5312C100.344 27.375 104.516 31.6094 104.5 38.6562C104.516 45.7344 100.344 50 93.4375 50ZM90.1562 45.9688H93.25C97.5625 45.9688 99.8125 43.7344 99.8125 38.6562C99.8125 33.625 97.5625 31.4062 93.2812 31.4062H90.1562V45.9688ZM107.906 50V27.375H116.781C121.922 27.375 124.875 30.2656 124.875 34.75C124.875 37.8438 123.453 40.0938 120.875 41.2031L125.688 50H120.5L116.172 41.9688H112.594V50H107.906ZM112.594 38.1562H115.906C118.688 38.1562 120.047 37.0156 120.031 34.75C120.047 32.4688 118.688 31.2344 115.906 31.2188H112.594V38.1562Z" fill="#12A79D"/>
<path opacity="0.7" d="M4.79004 80.1162C6.8335 80.1235 8.28369 81.3687 8.29102 83.1777C8.28369 84.9941 6.8335 86.2319 4.79004 86.2393C2.73193 86.2319 1.26709 84.9941 1.27441 83.1777C1.26709 81.3687 2.73193 80.1235 4.79004 80.1162ZM0.600586 88.3633C3.00293 88.3706 6.3208 88.3486 9.19922 87.9238L9.28711 88.7734C6.30615 89.3301 3.10547 89.3447 0.761719 89.3447L0.600586 88.3633ZM2.40234 83.1777C2.39502 84.3936 3.39844 85.2285 4.79004 85.2285C6.16699 85.2285 7.17041 84.3936 7.16309 83.1777C7.17041 81.9692 6.16699 81.127 4.79004 81.127C3.39844 81.127 2.39502 81.9692 2.40234 83.1777ZM10.0635 92.2158V79.1641H11.2061V92.2158H10.0635ZM25.415 89.6084V90.5752H13.4912V89.6084H16.8457V87.1328H14.9854V83.1191H22.7783V81.083H14.9561V80.1309H23.9062V84.0713H16.1279V86.1807H24.2139V87.1328H22.1777V89.6084H25.415ZM17.9736 89.6084H21.0498V87.1328H17.9736V89.6084ZM37.2217 79.1641V92.1865H36.0645V79.1641H37.2217ZM26.6162 88.8027C30.1392 87.1328 31.9409 84.6353 32.1973 81.5225H27.2168V80.585H33.3691C33.3545 84.3276 31.6113 87.6455 27.2461 89.7402L26.6162 88.8027ZM50.1855 79.1641V92.1865H49.0283V79.1641H50.1855ZM39.5801 88.8027C43.103 87.1328 44.9048 84.6353 45.1611 81.5225H40.1807V80.585H46.333C46.3184 84.3276 44.5752 87.6455 40.21 89.7402L39.5801 88.8027ZM60.5273 81.625C60.52 83.4194 61.875 85.0747 63.7939 85.7412L63.208 86.6641C61.7285 86.1221 60.5786 85.0234 60 83.6465C59.4507 85.1992 58.2715 86.3931 56.7334 86.9863L56.1035 86.0635C58.0884 85.3677 59.3921 83.6025 59.3994 81.5811V79.9697H60.5273V81.625ZM58.1982 91.9082V87.8652H59.3701V90.9414H66.9287V91.9082H58.1982ZM65.1855 88.7881V79.1641H66.3281V83.1631H68.291V84.1445H66.3281V88.7881H65.1855ZM72.7002 79.7793C74.4434 79.772 75.7764 80.79 76.0254 82.2842H78.75V79.1641H79.9072V86.1514H78.75V83.2363H76.0327C75.8057 84.7744 74.4653 85.7998 72.7002 85.7998C70.7153 85.7998 69.3091 84.5693 69.3164 82.7822C69.3091 81.0171 70.7153 79.772 72.7002 79.7793ZM70.415 82.7822C70.415 83.9688 71.3599 84.8257 72.7002 84.833C74.0112 84.8257 74.9561 83.9688 74.9561 82.7822C74.9561 81.5811 74.0112 80.7461 72.7002 80.7607C71.3599 80.7461 70.415 81.5811 70.415 82.7822ZM71.5137 92.0107V86.8105H72.6709V88.4658H78.75V86.8105H79.9072V92.0107H71.5137ZM72.6709 91.0732H78.75V89.3887H72.6709V91.0732ZM86.3379 80.1162C88.3813 80.1235 89.8315 81.3687 89.8389 83.1777C89.8315 84.9941 88.3813 86.2319 86.3379 86.2393C84.2798 86.2319 82.8149 84.9941 82.8223 83.1777C82.8149 81.3687 84.2798 80.1235 86.3379 80.1162ZM82.1484 88.3633C84.5508 88.3706 87.8687 88.3486 90.7471 87.9238L90.835 88.7734C87.854 89.3301 84.6533 89.3447 82.3096 89.3447L82.1484 88.3633ZM83.9502 83.1777C83.9429 84.3936 84.9463 85.2285 86.3379 85.2285C87.7148 85.2285 88.7183 84.3936 88.7109 83.1777C88.7183 81.9692 87.7148 81.127 86.3379 81.127C84.9463 81.127 83.9429 81.9692 83.9502 83.1777ZM91.6113 92.2158V79.1641H92.7539V92.2158H91.6113ZM105.586 80.4531V88.9199H99.5654V80.4531H105.586ZM100.693 87.9824H104.458V81.376H100.693V87.9824ZM108.384 92.2158V79.1641H109.541V92.2158H108.384ZM117.085 80.585V85.1406H113.32V88.0996C114.822 88.0923 116.235 88.0337 117.92 87.748L118.022 88.6855C116.169 89.0078 114.697 89.0664 113.057 89.0664H112.207V84.1885H115.972V81.5518H112.178V80.585H117.085ZM118.828 91.5127V79.457H119.883V84.3203H121.802V79.1641H122.9V92.1865H121.802V85.2725H119.883V91.5127H118.828ZM134.81 79.1641V84.4668H136.919V85.4336H134.81V92.1865H133.667V79.1641H134.81ZM124.819 88.8027C128.181 87.1328 130.012 84.6206 130.276 81.5371H125.42V80.5703H131.44C131.433 84.2544 129.705 87.6162 125.464 89.7109L124.819 88.8027ZM148.433 79.1641V92.1865H147.275V79.1641H148.433ZM137.959 88.7734C139.893 87.8945 141.372 85.6973 141.372 83.4121V82.3721H138.311V81.4346H141.357V79.4131H142.5V81.4346H145.532V82.3721H142.5V83.4121C142.5 85.5947 144.023 87.7041 145.986 88.5391L145.342 89.4326C143.833 88.7661 142.566 87.3599 141.958 85.6387C141.372 87.4551 140.112 88.9565 138.604 89.667L137.959 88.7734ZM162.568 85.2139V86.1221H150.645V85.2139H162.568ZM152.08 88.0264V87.1621H161.074V89.9307H153.252V91.1758H161.499V92.0107H152.095V89.1396H159.932V88.0264H152.08ZM152.153 80.3945V79.5596H161.03V82.2549H153.34V83.3975H161.265V84.2324H152.197V81.4639H159.873V80.3945H152.153ZM171.826 81.9766C171.833 83.5732 173.137 85.0015 175.063 85.5654L174.521 86.4883C173.027 86.0269 171.863 85.0527 171.284 83.8003C170.728 85.2139 169.526 86.2979 167.988 86.8252L167.402 85.917C169.343 85.3164 170.691 83.7563 170.698 81.9766V81.7129H167.754V80.7607H170.698V79.1055H171.855V80.7607H174.771V81.7129H171.826V81.9766ZM169.072 89.8135C169.08 88.3267 170.706 87.4771 173.394 87.4844C176.082 87.4771 177.686 88.3267 177.686 89.8135C177.686 91.3003 176.082 92.1499 173.394 92.1426C170.706 92.1499 169.08 91.3003 169.072 89.8135ZM170.229 89.8135C170.215 90.7217 171.416 91.249 173.394 91.249C175.364 91.249 176.565 90.7217 176.572 89.8135C176.565 88.9053 175.364 88.3926 173.394 88.3926C171.416 88.3926 170.215 88.9053 170.229 89.8135ZM176.426 87.1621V79.1641H177.568V82.5625H179.531V83.5146H177.568V87.1621H176.426ZM192.275 89.5498V90.5166H180.352V89.5498H185.728V86.3857H186.885V89.5498H192.275ZM180.938 85.917C183.142 85.5435 185.698 83.7197 185.698 81.6396V81.3174H181.333V80.3506H191.25V81.3174H186.885V81.6396C186.892 83.7197 189.456 85.5068 191.704 85.873L191.235 86.7812C189.243 86.3857 187.141 85.1187 186.306 83.3169C185.471 85.1406 183.376 86.437 181.421 86.8398L180.938 85.917ZM203.394 79.1641V84.54H205.576V85.4922H203.394V92.1865H202.251V79.1641H203.394ZM193.242 82.2109V81.2588H196.597V79.3252H197.739V81.2588H200.991V82.2109H193.242ZM193.989 86.2832C193.982 84.5254 195.33 83.2949 197.183 83.2949C199.021 83.2949 200.361 84.5254 200.376 86.2832C200.361 88.0483 199.021 89.2715 197.183 89.2715C195.33 89.2715 193.982 88.0483 193.989 86.2832ZM195.088 86.2832C195.081 87.4697 195.967 88.3047 197.183 88.29C198.384 88.3047 199.263 87.4697 199.277 86.2832C199.263 85.104 198.384 84.2544 197.183 84.2617C195.967 84.2544 195.081 85.104 195.088 86.2832ZM216.812 83.1191V84.042H207.891V79.6475H209.033V83.1191H216.812ZM206.265 86.752V85.8145H218.188V86.752H206.265ZM207.817 91.8643V88.085H208.96V90.9121H216.885V91.8643H207.817ZM10.708 102.179V106.471H12.6709V107.438H10.708V111.935H9.56543V102.179H10.708ZM0.556641 104.713V103.775H3.86719V102.179H5.00977V103.775H8.32031V104.713H0.556641ZM1.30371 107.862C1.29639 106.383 2.55615 105.431 4.43848 105.431C6.29883 105.431 7.55859 106.383 7.57324 107.862C7.55859 109.327 6.29883 110.272 4.43848 110.265C2.55615 110.272 1.29639 109.327 1.30371 107.862ZM2.40234 107.862C2.39502 108.778 3.20801 109.371 4.43848 109.356C5.6543 109.371 6.47461 108.778 6.48926 107.862C6.47461 106.932 5.6543 106.332 4.43848 106.339C3.20801 106.332 2.39502 106.932 2.40234 107.862ZM2.56348 114.908V111.158H3.69141V113.941H11.3086V114.908H2.56348ZM23.8477 102.809V103.746C23.8477 104.713 23.8477 105.885 23.5254 107.452H25.415V108.39H19.9951V110.792H23.9355V115.187H22.7783V111.744H14.7217V110.792H18.8525V108.39H13.4912V107.452H22.3682C22.7124 105.863 22.7124 104.713 22.7051 103.746H15V102.809H23.8477ZM30.7178 103.116C32.7612 103.124 34.2114 104.369 34.2188 106.178C34.2114 107.994 32.7612 109.232 30.7178 109.239C28.6597 109.232 27.1948 107.994 27.2021 106.178C27.1948 104.369 28.6597 103.124 30.7178 103.116ZM26.5283 111.363C28.9307 111.371 32.2485 111.349 35.127 110.924L35.2148 111.773C32.2339 112.33 29.0332 112.345 26.6895 112.345L26.5283 111.363ZM28.3301 106.178C28.3228 107.394 29.3262 108.229 30.7178 108.229C32.0947 108.229 33.0981 107.394 33.0908 106.178C33.0981 104.969 32.0947 104.127 30.7178 104.127C29.3262 104.127 28.3228 104.969 28.3301 106.178ZM35.9912 115.216V102.164H37.1338V115.216H35.9912ZM51.3428 112.608V113.575H39.4189V112.608H42.7734V110.133H40.9131V106.119H48.7061V104.083H40.8838V103.131H49.834V107.071H42.0557V109.181H50.1416V110.133H48.1055V112.608H51.3428ZM43.9014 112.608H46.9775V110.133H43.9014V112.608ZM63.1494 102.164V115.187H61.9922V102.164H63.1494ZM52.5439 111.803C56.0669 110.133 57.8687 107.635 58.125 104.522H53.1445V103.585H59.2969C59.2822 107.328 57.5391 110.646 53.1738 112.74L52.5439 111.803ZM76.1133 102.164V115.187H74.9561V102.164H76.1133ZM65.5078 111.803C69.0308 110.133 70.8325 107.635 71.0889 104.522H66.1084V103.585H72.2607C72.2461 107.328 70.5029 110.646 66.1377 112.74L65.5078 111.803ZM88.4912 102.164V106.134H90.4541V107.101H88.4912V111.773H87.3486V102.164H88.4912ZM78.5596 106.295C78.5522 104.405 80.0317 103.094 81.9727 103.087C83.9282 103.094 85.3857 104.405 85.4004 106.295C85.3857 108.177 83.9282 109.503 81.9727 109.503C80.0317 109.503 78.5522 108.177 78.5596 106.295ZM79.6875 106.295C79.6802 107.577 80.6836 108.492 81.9727 108.492C83.2837 108.492 84.2651 107.577 84.2725 106.295C84.2651 105.006 83.2837 104.098 81.9727 104.098C80.6836 104.098 79.6802 105.006 79.6875 106.295ZM80.3467 114.908V110.777H81.4746V113.941H89.0918V114.908H80.3467ZM102.07 102.179V111.729H100.913V106.734H98.2324V105.782H100.913V102.179H102.07ZM91.333 109.122C93.252 108.448 94.6436 106.727 94.6436 104.859V104.186H91.6992V103.233H98.7158V104.186H95.8008V104.859C95.8008 106.544 97.1045 108.177 99.0088 108.829L98.4082 109.752C96.9434 109.217 95.8081 108.126 95.2441 106.778C94.6802 108.287 93.479 109.481 91.9336 110.06L91.333 109.122ZM93.7061 114.908V110.865H94.8633V113.941H102.437V114.908H93.7061ZM115.034 102.164V109.928H113.877V106.515H111.255V105.562H113.877V102.164H115.034ZM104.297 108.888C106.23 108.192 107.607 106.427 107.607 104.566V104.083H104.663V103.116H111.68V104.083H108.765V104.552C108.765 106.251 110.068 107.87 111.973 108.521L111.372 109.444C109.915 108.917 108.779 107.818 108.215 106.478C107.659 108.001 106.45 109.217 104.897 109.811L104.297 108.888ZM106.348 112.755C106.34 111.224 108.003 110.331 110.713 110.338C113.416 110.331 115.078 111.224 115.078 112.755C115.078 114.293 113.416 115.172 110.713 115.187C108.003 115.172 106.34 114.293 106.348 112.755ZM107.49 112.755C107.483 113.7 108.713 114.271 110.713 114.264C112.705 114.271 113.936 113.7 113.936 112.755C113.936 111.803 112.705 111.231 110.713 111.231C108.713 111.231 107.483 111.803 107.49 112.755ZM129.126 112.564V113.517H117.202V112.564H122.563V109.752H118.608V103.087H119.766V105.445H126.533V103.087H127.661V109.752H123.691V112.564H129.126ZM119.766 108.814H126.533V106.383H119.766V108.814ZM140.903 102.179V112.066H139.746V110.719H137.051V109.884H139.746V102.179H140.903ZM130.093 108.214C132.517 108.199 135.784 108.177 138.574 107.833L138.647 108.668C137.49 108.851 136.267 108.968 135.073 109.042V111.612H133.916V109.1C132.598 109.151 131.345 109.151 130.254 109.151L130.093 108.214ZM131.147 104.977C131.14 103.607 132.444 102.706 134.37 102.706C136.282 102.706 137.585 103.607 137.593 104.977C137.585 106.368 136.282 107.232 134.37 107.232C132.444 107.232 131.14 106.368 131.147 104.977ZM131.968 114.908V111.1H133.125V113.941H141.226V114.908H131.968ZM132.246 104.977C132.231 105.826 133.096 106.375 134.37 106.383C135.608 106.375 136.487 105.826 136.494 104.977C136.487 104.142 135.608 103.57 134.37 103.585C133.096 103.57 132.231 104.142 132.246 104.977ZM158.804 109.591V110.543H155.654V115.187H154.497V110.543H151.157V115.187H149.971V110.543H146.88V109.591H158.804ZM148.228 105.533C148.235 103.797 150.073 102.699 152.812 102.691C155.544 102.699 157.397 103.797 157.397 105.533C157.397 107.269 155.544 108.353 152.812 108.346C150.073 108.353 148.235 107.269 148.228 105.533ZM149.414 105.533C149.399 106.683 150.784 107.423 152.812 107.423C154.841 107.423 156.218 106.683 156.226 105.533C156.218 104.376 154.841 103.629 152.812 103.629C150.784 103.629 149.399 104.376 149.414 105.533ZM170.654 102.179V109.327H169.497V105.841H167.021V104.889H169.497V102.179H170.654ZM160.386 103.658V102.721H166.187V106.236H161.558V108.038C163.704 108.031 165.315 107.965 167.271 107.643L167.373 108.609C165.33 108.924 163.652 108.983 161.396 108.99H160.415V105.343H165.073V103.658H160.386ZM162.129 115.011V109.942H163.271V111.539H169.512V109.942H170.654V115.011H162.129ZM163.271 114.073H169.512V112.462H163.271V114.073ZM173.467 103.395H175.049L178.623 112.125H178.755L182.329 103.395H183.911V114H182.666V105.987H182.563L179.268 114H178.096L174.8 105.987H174.712V114H173.467V103.395ZM189.551 114H186.255V103.395H189.683C192.781 103.395 194.604 105.379 194.604 108.683C194.604 111.993 192.781 114 189.551 114ZM187.573 112.828H189.463C192.063 112.828 193.315 111.253 193.315 108.683C193.315 106.119 192.063 104.566 189.595 104.566H187.573V112.828ZM196.538 114V103.395H200.142C202.625 103.395 203.76 104.771 203.76 106.661C203.76 108.067 203.13 109.166 201.782 109.635L204.17 114H202.632L200.413 109.876C200.332 109.884 200.244 109.884 200.156 109.884H197.856V114H196.538ZM197.856 108.683H200.098C201.79 108.683 202.449 107.921 202.456 106.661C202.449 105.394 201.79 104.566 200.083 104.566H197.856V108.683ZM215.757 102.574V103.482H213.75V106.002H215.713V106.896H206.177V106.002H208.14V103.482H206.133V102.574H215.757ZM205.02 108.917V107.994H216.885V108.917H205.02ZM206.455 110.953V110.089H215.361V112.916H207.627V114.161H215.757V115.04H206.484V112.081H214.233V110.953H206.455ZM209.282 106.002H212.607V103.482H209.282V106.002ZM229.043 102.179V111.056H227.944V106.544H226.113V109.928H225.044V102.428H226.113V105.592H227.944V102.179H229.043ZM218.555 104.142V103.189H223.491V106.837H219.697V108.785C221.411 108.785 222.729 108.705 224.268 108.39L224.399 109.312C222.715 109.649 221.338 109.708 219.434 109.708H218.584V105.958H222.393V104.142H218.555ZM219.639 114.234C221.909 113.883 224.106 112.499 224.121 110.777V110.44H225.264V110.777C225.264 112.499 227.461 113.883 229.746 114.234L229.277 115.128C227.336 114.806 225.483 113.802 224.692 112.345C223.894 113.802 222.034 114.806 220.107 115.128L219.639 114.234ZM242.812 108.741V109.679H230.947V108.741H236.294V107.232H232.104V106.28H234.067V103.541H232.061V102.589H241.685V103.541H239.678V106.28H241.641V107.232H237.437V108.741H242.812ZM232.397 115.011V110.938H241.362V115.011H232.397ZM233.54 114.073H240.234V111.832H233.54V114.073ZM235.21 106.28H238.535V103.541H235.21V106.28Z" fill="#202020"/>
</svg>
