<svg width="16" height="17" viewBox="0 0 16 17" fill="none" xmlns="http://www.w3.org/2000/svg">
<g clip-path="url(#clip0_7447_1601)">
<path d="M12.0785 1H3.9215C2.03186 1 0.5 2.53195 0.5 4.42171V10.8256C0.5 12.7154 2.03186 14.2473 3.9215 14.2473H12.0785C13.9681 14.2473 15.5 12.7154 15.5 10.8256V4.42171C15.5 2.53195 13.9681 1 12.0785 1Z" fill="#12A79D"/>
<path d="M5.80773 11.1511C5.70038 11.1511 5.59407 11.13 5.49489 11.0889C5.39571 11.0478 5.30559 10.9876 5.22967 10.9117C5.15376 10.8358 5.09355 10.7456 5.05246 10.6464C5.01138 10.5473 4.99023 10.4409 4.99023 10.3336V5.43728C4.99014 5.2719 5.0402 5.11038 5.13381 4.97404C5.22742 4.83771 5.36017 4.73297 5.51454 4.67365C5.66891 4.61434 5.83763 4.60324 5.99844 4.64182C6.15925 4.6804 6.30458 4.76685 6.41523 4.88974L9.37773 8.18995V5.27377C9.37301 5.16356 9.39064 5.05353 9.42955 4.95032C9.46847 4.8471 9.52787 4.75283 9.60418 4.67317C9.68048 4.59352 9.77212 4.53013 9.87357 4.48683C9.97502 4.44353 10.0842 4.4212 10.1945 4.4212C10.3048 4.4212 10.4139 4.44353 10.5154 4.48683C10.6168 4.53013 10.7085 4.59352 10.7848 4.67317C10.8611 4.75283 10.9205 4.8471 10.9594 4.95032C10.9983 5.05353 11.016 5.16356 11.0112 5.27377V10.3156C11.011 10.4808 10.9607 10.6421 10.867 10.7782C10.7733 10.9143 10.6405 11.0188 10.4862 11.078C10.3319 11.1371 10.1633 11.1481 10.0027 11.1095C9.842 11.0708 9.69681 10.9844 9.58623 10.8616L6.62373 7.56891V10.3336C6.62393 10.4409 6.60297 10.5472 6.56205 10.6463C6.52113 10.7455 6.46106 10.8357 6.38526 10.9116C6.30947 10.9875 6.21945 11.0478 6.12035 11.0889C6.02125 11.13 5.91502 11.1511 5.80773 11.1511Z" fill="white"/>
<path d="M7.46247 15.6416L5.79297 11.6333H10.2105L8.54097 15.6416C8.49632 15.7477 8.42134 15.8383 8.32541 15.9021C8.22948 15.9658 8.11688 15.9998 8.00172 15.9998C7.88656 15.9998 7.77395 15.9658 7.67803 15.9021C7.5821 15.8383 7.50711 15.7477 7.46247 15.6416Z" fill="#12A79D"/>
</g>
<defs>
<clipPath id="clip0_7447_1601">
<rect width="15" height="16" fill="white" transform="translate(0.5 0.5)"/>
</clipPath>
</defs>
</svg>
