<svg width="16" height="17" viewBox="0 0 16 17" fill="none" xmlns="http://www.w3.org/2000/svg">
<mask id="mask0_7450_9101" style="mask-type:luminance" maskUnits="userSpaceOnUse" x="2" y="2" width="11" height="14">
<path d="M3.83521 6.39994C5.32369 4.65543 7.11459 4.2425 6.8169 2.44232C6.8035 2.38009 6.80683 2.31551 6.82655 2.25493C6.84628 2.19435 6.88171 2.13985 6.92939 2.09679C6.97706 2.05373 7.03532 2.02359 7.09844 2.00933C7.16157 1.99507 7.22739 1.99719 7.28943 2.01547C9.32605 2.50727 10.6869 4.41417 9.9498 6.97526C9.9391 7.01108 9.93775 7.04897 9.94586 7.08544C9.95397 7.12191 9.9713 7.1558 9.99623 7.18398C10.0212 7.21216 10.0529 7.23373 10.0886 7.24671C10.1242 7.2597 10.1626 7.26367 10.2002 7.25828C10.4624 7.17319 10.7001 7.02771 10.8932 6.83398C11.0864 6.64026 11.2296 6.40393 11.3107 6.14476C11.3361 6.10006 11.3721 6.062 11.4156 6.03377C11.4591 6.00554 11.5088 5.98795 11.5606 5.9825C11.6125 5.97705 11.6649 5.98388 11.7135 6.00242C11.7621 6.02097 11.8054 6.05069 11.8399 6.08908C12.3827 6.86915 12.7444 7.75671 12.8995 8.68908C13.0547 9.62145 12.9994 10.5759 12.7377 11.485C12.5583 12.1376 12.2379 12.7446 11.7985 13.265C11.359 13.7853 10.8107 14.2068 10.1908 14.5008C9.3244 14.8832 8.37591 15.0519 7.42795 14.992C6.47999 14.9322 5.5613 14.6457 4.75192 14.1574C2.01595 12.464 1.85056 8.71049 3.83521 6.39994Z" fill="white"/>
</mask>
<g mask="url(#mask0_7450_9101)">
<path d="M3.83521 6.39994C5.32369 4.65543 7.11459 4.2425 6.8169 2.44232C6.8035 2.38009 6.80683 2.31551 6.82655 2.25493C6.84628 2.19435 6.88171 2.13985 6.92939 2.09679C6.97706 2.05373 7.03532 2.02359 7.09844 2.00933C7.16157 1.99507 7.22739 1.99719 7.28943 2.01547C9.32605 2.50727 10.6869 4.41417 9.9498 6.97526C9.9391 7.01108 9.93775 7.04897 9.94586 7.08544C9.95397 7.12191 9.9713 7.1558 9.99623 7.18398C10.0212 7.21216 10.0529 7.23373 10.0886 7.24671C10.1242 7.2597 10.1626 7.26367 10.2002 7.25828C10.4624 7.17319 10.7001 7.02771 10.8932 6.83398C11.0864 6.64026 11.2296 6.40393 11.3107 6.14476C11.3361 6.10006 11.3721 6.062 11.4156 6.03377C11.4591 6.00554 11.5088 5.98795 11.5606 5.9825C11.6125 5.97705 11.6649 5.98388 11.7135 6.00242C11.7621 6.02097 11.8054 6.05069 11.8399 6.08908C12.3827 6.86915 12.7444 7.75671 12.8995 8.68908C13.0547 9.62145 12.9994 10.5759 12.7377 11.485C12.5583 12.1376 12.2379 12.7446 11.7985 13.265C11.359 13.7853 10.8107 14.2068 10.1908 14.5008C9.3244 14.8832 8.37591 15.0519 7.42795 14.992C6.47999 14.9322 5.5613 14.6457 4.75192 14.1574C2.01595 12.464 1.85056 8.71049 3.83521 6.39994Z" fill="url(#paint0_linear_7450_9101)"/>
<g style="mix-blend-mode:screen">
<path d="M3.73139 6.30251C5.22459 4.59048 7.06748 4.11259 6.6422 2.48871C6.45791 1.76493 7.14308 1.77421 7.82353 2.02475C8.76399 2.42288 9.52024 3.14991 9.94548 4.06471C10.3707 4.9795 10.4346 6.01681 10.1248 6.97526C10.0822 7.13301 10.1815 7.18868 10.3232 7.10517C10.7757 6.81769 11.0961 6.36827 11.2163 5.85246C11.3014 5.62512 11.7314 5.61584 12.0811 6.10764C12.607 6.91013 12.9561 7.81182 13.1058 8.75471C13.2555 9.69759 13.2026 10.6608 12.9505 11.5824C12.7814 12.2291 12.4734 12.8327 12.0472 13.3529C11.6209 13.873 11.0863 14.2976 10.4792 14.5982C9.00487 15.2802 6.16966 15.5818 4.53469 14.3477C3.92634 13.8835 3.42071 13.3024 3.04867 12.64C2.67663 11.9775 2.44598 11.2476 2.37081 10.4947C2.29563 9.74185 2.37751 8.98182 2.61143 8.26105C2.84536 7.54028 3.22643 6.87387 3.73139 6.30251Z" fill="#FFD599"/>
<path opacity="0.95" d="M3.73143 6.37211C5.19156 4.65544 7.04389 4.19148 6.68004 2.56296C6.51938 1.82989 7.19983 1.83453 7.88973 2.09899C8.79713 2.51059 9.52073 3.23268 9.92515 4.13018C10.3296 5.02769 10.3871 6.03912 10.087 6.97527C10.0398 7.1423 10.1579 7.22581 10.3186 7.13766C10.5434 7.00708 10.7386 6.83268 10.8922 6.62522C11.0458 6.41776 11.1545 6.18162 11.2116 5.93135C11.3109 5.69009 11.7409 5.69473 12.0858 6.17261C12.5996 6.96729 12.9392 7.85824 13.0832 8.78881C13.2272 9.71937 13.1724 10.6692 12.9222 11.5778C12.7485 12.2252 12.4355 12.8285 12.0043 13.3471C11.5731 13.8657 11.0337 14.2876 10.4225 14.5843C8.93875 15.2571 6.22168 15.5401 4.55836 14.3198C3.95583 13.8631 3.45429 13.2906 3.0843 12.6374C2.71431 11.9842 2.4836 11.2639 2.40624 10.5204C2.32888 9.77682 2.40647 9.02559 2.63429 8.31242C2.86212 7.59925 3.23541 6.93908 3.73143 6.37211Z" fill="#EFC88F"/>
<path opacity="0.9" d="M3.72733 6.44645C5.18274 4.70658 7.03507 4.23798 6.71375 2.6373C6.56726 1.89495 7.24771 1.89031 7.94233 2.17333C8.82145 2.5929 9.51784 3.30854 9.90466 4.18993C10.2915 5.07132 10.343 6.05982 10.0498 6.97537C9.99786 7.15632 10.1349 7.26303 10.3192 7.1656C10.5424 7.04553 10.7373 6.88057 10.8912 6.6815C11.0451 6.48243 11.1545 6.25373 11.2123 6.01033C11.3162 5.75979 11.7557 5.76906 12.0865 6.23767C12.5901 7.0236 12.922 7.90368 13.0611 8.82216C13.2002 9.74063 13.1435 10.6775 12.8945 11.5733C12.7188 12.2199 12.4039 12.8221 11.971 13.3391C11.5382 13.8561 10.9975 14.276 10.3853 14.5705C8.89685 15.2386 6.27902 15.4984 4.60152 14.2967C1.875 12.3063 1.87027 8.67349 3.72733 6.44645Z" fill="#DFBA86"/>
<path opacity="0.85" d="M3.72595 6.51111C5.17191 4.75732 6.99589 4.29799 6.74072 2.70195C6.64149 1.95497 7.29358 1.94569 7.99766 2.2751C8.84073 2.70278 9.50382 3.40787 9.87094 4.26705C10.2381 5.12623 10.2858 6.0848 10.0059 6.97507C9.95395 7.16994 10.1099 7.29985 10.3131 7.19778C10.5352 7.0873 10.7304 6.93103 10.8854 6.73965C11.0403 6.54827 11.1514 6.32629 11.2109 6.0889C11.3243 5.82444 11.7638 5.84764 12.0851 6.30696C12.581 7.0823 12.9062 7.95098 13.0396 8.85712C13.1731 9.76326 13.1119 10.6868 12.86 11.5683C12.6818 12.214 12.3648 12.8148 11.9303 13.3302C11.4959 13.8455 10.9541 14.2636 10.3414 14.5563C8.84349 15.2197 6.32016 15.4842 4.63322 14.2686C1.91615 12.3339 1.91615 8.71494 3.72595 6.51111Z" fill="#CFAD7C"/>
<path opacity="0.8" d="M3.72619 6.59002C5.14379 4.81767 6.97722 4.36298 6.7693 2.78086C6.67007 2.01996 7.34107 2.0014 8.05932 2.35865C8.86595 2.79845 9.49401 3.49723 9.83816 4.33777C10.1823 5.17831 10.2216 6.10949 9.94946 6.97511C9.89275 7.18389 10.0629 7.33236 10.2944 7.23029C10.5147 7.12937 10.7096 6.98174 10.8648 6.79802C11.0201 6.6143 11.1319 6.39906 11.1922 6.16781C11.3151 5.89407 11.7545 5.92191 12.0711 6.37195C12.5566 7.13608 12.8749 7.99097 13.0059 8.88235C13.1369 9.77373 13.0776 10.6821 12.8319 11.5498C12.6512 12.1959 12.3311 12.7963 11.8933 13.3102C11.4554 13.8242 10.9102 14.2397 10.2944 14.5285C8.78702 15.1873 6.36293 15.4146 4.66653 14.2315C1.97781 12.3571 1.95891 8.76137 3.72619 6.59002Z" fill="#BFA073"/>
<path opacity="0.75" d="M3.72222 6.65979C5.13982 4.87353 6.95908 4.42348 6.79841 2.85064C6.72281 2.08509 7.38908 2.05726 8.11206 2.44235C8.89443 2.88342 9.50186 3.57136 9.83558 4.39433C10.1693 5.2173 10.2097 6.12691 9.95022 6.97529C9.88879 7.19335 10.0778 7.36966 10.3282 7.26295C10.5465 7.1707 10.741 7.03152 10.8972 6.85566C11.0534 6.6798 11.1674 6.47175 11.2308 6.24686C11.3584 5.9592 11.8073 5.99632 12.1097 6.43709C12.5808 7.19343 12.8873 8.0373 13.0101 8.91562C13.1329 9.79394 13.0693 10.6877 12.8232 11.5407C12.6375 12.186 12.3139 12.785 11.8739 13.2978C11.4339 13.8106 10.8877 14.2255 10.2715 14.5147C8.75471 15.1643 6.42984 15.3731 4.71926 14.2039C2.03055 12.3805 2.00692 8.83115 3.72222 6.65979Z" fill="#AF9269"/>
<path opacity="0.7" d="M3.72244 6.72922C5.14004 4.92904 6.9404 4.48363 6.83171 2.9247C6.77501 2.14524 7.43656 2.11277 8.16426 2.52569C8.91269 2.97539 9.48804 3.65616 9.80015 4.46134C10.1123 5.26653 10.1435 6.15063 9.88901 6.97512C9.82758 7.2071 10.0308 7.40197 10.3096 7.29062C10.5254 7.20953 10.719 7.08005 10.8749 6.9125C11.0308 6.74496 11.1446 6.54397 11.2074 6.32557C11.3491 6.02863 11.798 6.07503 12.0957 6.50652C12.5581 7.25179 12.8581 8.08308 12.9769 8.94792C13.0956 9.81276 13.0305 10.6924 12.7856 11.5313C12.5961 12.1763 12.2688 12.7743 11.8256 13.2855C11.3824 13.7967 10.8334 14.2094 10.2151 14.496C8.68405 15.1409 6.45369 15.3265 4.75256 14.1759C2.08747 12.3989 2.04967 8.83098 3.72244 6.72922Z" fill="#9F8560"/>
<path opacity="0.65" d="M3.72163 6.80347C5.13924 4.98473 6.92069 4.5486 6.85926 2.99896C6.82618 2.21022 7.48301 2.16382 8.22016 2.60923C8.9313 3.06365 9.47409 3.73129 9.76781 4.51288C10.0615 5.29446 10.0905 6.14825 9.8504 6.9473C9.83012 7.00811 9.82976 7.07364 9.84936 7.13466C9.86896 7.19569 9.90753 7.24915 9.95967 7.28755C10.0118 7.32594 10.0749 7.34733 10.14 7.34872C10.2052 7.35011 10.2692 7.33142 10.3229 7.29528C10.5382 7.22304 10.7325 7.10102 10.8896 6.93951C11.0467 6.77801 11.1619 6.58176 11.2255 6.36735C11.372 6.05649 11.8256 6.11216 12.1138 6.53437C12.5658 7.2772 12.8555 8.10419 12.9645 8.96283C13.0735 9.82146 12.9994 10.693 12.747 11.522C12.5537 12.1668 12.2228 12.7638 11.7763 13.2734C11.3298 13.783 10.778 14.1934 10.1575 14.4775C8.62654 15.1177 6.50013 15.2894 4.75176 14.148C2.14337 12.4221 2.09612 8.89596 3.72163 6.80347Z" fill="#8F7856"/>
<path opacity="0.6" d="M3.72055 6.87341C5.13815 5.04075 6.90543 4.60926 6.88653 3.06889C6.88653 2.27551 7.52917 2.21984 8.27578 2.69308C8.95384 3.1523 9.46721 3.80971 9.74292 4.57185C10.0186 5.33399 10.0426 6.16206 9.81151 6.93836C9.79577 6.99952 9.798 7.06381 9.81792 7.12378C9.83784 7.18375 9.87465 7.23695 9.92408 7.27724C9.97352 7.31753 10.0336 7.34325 10.0973 7.35143C10.161 7.35961 10.2257 7.34991 10.284 7.32345C10.4945 7.25938 10.6862 7.14675 10.8433 6.995C11.0003 6.84325 11.118 6.65678 11.1866 6.4512C11.3425 6.13106 11.8009 6.19602 12.0797 6.60431C12.5216 7.33656 12.8046 8.15054 12.9112 8.99523C13.0177 9.83992 12.9453 10.6971 12.6987 11.5131C12.5023 12.1573 12.1686 12.7532 11.7197 13.2612C11.2708 13.7692 10.717 14.1775 10.095 14.4592C9.25096 14.8314 8.32695 14.9951 7.40362 14.9361C6.4803 14.8771 5.58572 14.5971 4.79793 14.1205C2.19427 12.4456 2.13756 8.93805 3.72055 6.87341Z" fill="#806B4D"/>
<path opacity="0.55" d="M3.71715 6.9474C5.13475 5.09154 6.88786 4.66933 6.91621 3.14289C6.93038 2.33559 7.58721 2.27063 8.32908 2.79955C8.97954 3.26385 9.46741 3.91471 9.72551 4.66252C9.98362 5.41034 9.99927 6.21833 9.77031 6.97524C9.75276 7.04332 9.7555 7.11492 9.77821 7.18151C9.80091 7.24811 9.84262 7.3069 9.89837 7.35088C9.95412 7.39487 10.0216 7.42221 10.0927 7.42964C10.1638 7.43708 10.2356 7.42429 10.2996 7.39281C10.5134 7.33138 10.7084 7.21863 10.8668 7.06473C11.0252 6.91083 11.142 6.72062 11.2068 6.51127C11.3722 6.17722 11.8306 6.25145 12.0999 6.6551C12.5371 7.37818 12.8156 8.18304 12.9173 9.01801C13.019 9.85298 12.9418 10.6996 12.6906 11.5035C12.4891 12.1475 12.1513 12.7425 11.6993 13.2494C11.2474 13.7563 10.6915 14.1638 10.068 14.4451C9.23306 14.8135 8.31845 14.9741 7.40519 14.9126C6.49194 14.8511 5.60823 14.5694 4.83233 14.0925C2.2523 12.464 2.18614 8.97957 3.71715 6.9474Z" fill="#705D43"/>
<path opacity="0.5" d="M3.71781 7.01686C5.10234 5.161 6.87434 4.72951 6.94994 3.21698C6.98775 2.40041 7.63039 2.32153 8.36754 2.85973C8.98218 3.32677 9.43937 3.96469 9.67957 4.69043C9.91977 5.41618 9.93186 6.19612 9.71427 6.92871C9.69187 7.00264 9.69205 7.08139 9.71477 7.15522C9.73749 7.22906 9.78177 7.29473 9.84212 7.3441C9.90247 7.39348 9.97624 7.4244 10.0543 7.43303C10.1324 7.44167 10.2113 7.42763 10.2813 7.39267C10.4857 7.34669 10.6755 7.25193 10.8337 7.11679C10.992 6.98164 11.1139 6.81027 11.1886 6.61785C11.3634 6.27452 11.8218 6.35803 12.0864 6.74776C12.5085 7.46061 12.776 8.25147 12.872 9.07068C12.9679 9.88988 12.8903 10.7197 12.644 11.508C12.4408 12.1527 12.1008 12.7478 11.6463 13.2541C11.1918 13.7603 10.6332 14.1662 10.0072 14.4449C9.18346 14.8072 8.28121 14.9637 7.3809 14.9005C6.48058 14.8374 5.61015 14.5566 4.84717 14.0831C2.30966 12.4824 2.22933 9.02583 3.71781 7.01686Z" fill="#605039"/>
<path opacity="0.45" d="M3.71815 7.09122C5.09323 5.20752 6.8605 4.7714 6.97864 3.28671C7.04007 2.46549 7.68271 2.35878 8.44349 2.94337C9.02586 3.41395 9.45489 4.04188 9.67746 4.74945C9.90003 5.45701 9.90638 6.21313 9.69571 6.9242C9.68085 7.00023 9.68757 7.0788 9.71514 7.15134C9.7427 7.22387 9.79004 7.28757 9.85199 7.33546C9.91394 7.38335 9.98811 7.4136 10.0664 7.4229C10.1447 7.43219 10.224 7.42017 10.2958 7.38816C10.4974 7.35176 10.6862 7.26588 10.8449 7.13852C11.0035 7.01115 11.1267 6.84645 11.2031 6.65974C11.3921 6.30248 11.8552 6.39528 12.1056 6.77573C12.5186 7.47947 12.7788 8.25948 12.8699 9.06673C12.9609 9.87398 12.8809 10.691 12.6349 11.4664C12.4277 12.1113 12.084 12.706 11.6263 13.2113C11.1687 13.7167 10.6074 14.1213 9.97923 14.3987C9.16704 14.7531 8.27817 14.9046 7.39185 14.8399C6.50553 14.7751 5.6493 14.496 4.89949 14.0275C2.39033 12.5011 2.2722 9.06772 3.71815 7.09122Z" fill="#504330"/>
<path opacity="0.4" d="M3.71253 7.16082C5.07815 5.2632 6.84543 4.84099 7.02026 3.36094C7.11004 2.5258 7.74796 2.43301 8.51347 3.02689C9.06311 3.50066 9.46359 4.11865 9.66783 4.80821C9.87207 5.49777 9.8716 6.23025 9.66645 6.91956C9.65126 7.00016 9.65808 7.08328 9.68623 7.16045C9.71438 7.23763 9.76286 7.3061 9.82672 7.3589C9.89058 7.4117 9.96755 7.44695 10.0498 7.46106C10.132 7.47516 10.2166 7.46762 10.2949 7.4392C10.4927 7.41056 10.6798 7.33291 10.8385 7.21358C10.9973 7.09425 11.1224 6.93717 11.2022 6.75717C11.3959 6.39063 11.8637 6.48807 12.1047 6.86388C12.5122 7.56052 12.7672 8.33296 12.8535 9.13184C12.9397 9.93073 12.8553 10.7385 12.6056 11.5035C12.3928 12.1411 12.0466 12.728 11.5893 13.2266C11.132 13.7251 10.5736 14.1244 9.94997 14.3987C9.14813 14.7468 8.27087 14.8943 7.39674 14.8279C6.5226 14.7615 5.67888 14.4833 4.94111 14.0182C2.42251 12.5428 2.31382 9.10947 3.71253 7.16082Z" fill="#403526"/>
<path opacity="0.35" d="M3.71321 7.23038C5.06938 5.3142 6.83666 4.91055 7.02095 3.4305C7.13436 2.59072 7.77228 2.46545 8.53778 3.11037C9.05628 3.58576 9.4302 4.19313 9.61792 4.86484C9.80563 5.53656 9.79977 6.24625 9.60098 6.91488C9.57664 7.00331 9.57951 7.09684 9.60922 7.18368C9.63893 7.27051 9.69415 7.34677 9.76793 7.40284C9.84171 7.45891 9.93074 7.49227 10.0238 7.49874C10.1169 7.5052 10.2098 7.48447 10.2909 7.43916C10.4856 7.41875 10.6717 7.34958 10.8314 7.23829C10.9911 7.12699 11.119 6.97729 11.2029 6.80353C11.4061 6.42308 11.8739 6.53443 12.1101 6.89632C12.5032 7.58153 12.7481 8.339 12.8294 9.12136C12.9107 9.90373 12.8267 10.6941 12.5827 11.4432C12.3718 12.0947 12.0227 12.6949 11.5585 13.2043C11.0942 13.7137 10.5253 14.1208 9.88923 14.3986C9.09899 14.7399 8.23461 14.8826 7.37414 14.8138C6.51368 14.7449 5.68423 14.4667 4.9607 14.0043C2.4799 12.5428 2.35704 9.15119 3.71321 7.23038Z" fill="#30281D"/>
<path opacity="0.3" d="M3.71332 7.30464C5.05531 5.36991 6.82259 4.98482 7.06831 3.50477C7.20534 2.65571 7.84326 2.51188 8.60877 3.19391C9.09488 3.67014 9.44136 4.26613 9.61182 4.91927C9.78228 5.5724 9.77041 6.25856 9.57746 6.90563C9.56034 6.9965 9.56844 7.09022 9.6009 7.17695C9.63336 7.26369 9.68899 7.34025 9.76196 7.39862C9.83493 7.45698 9.92255 7.49499 10.0156 7.50866C10.1087 7.52233 10.2038 7.51115 10.291 7.47631C10.7635 7.35568 10.9809 7.29073 11.203 6.89172C11.4251 6.49271 11.8882 6.61798 12.1102 6.97059C12.4936 7.64691 12.7306 8.39371 12.8062 9.16416C12.8818 9.93461 12.7945 10.7121 12.5497 11.4479C12.3304 12.091 11.9761 12.6818 11.5097 13.1821C11.0433 13.6824 10.4752 14.081 9.84208 14.3523C9.06199 14.6825 8.21056 14.8172 7.36431 14.7443C6.51806 14.6714 5.70351 14.3932 4.99389 13.9347C2.53671 12.5428 2.39022 9.19298 3.71332 7.30464Z" fill="#201B13"/>
<path opacity="0.25" d="M3.71202 7.37403C5.03984 5.42074 6.81184 5.05421 7.09536 3.5788C7.26075 2.72046 7.89394 2.55807 8.66417 3.27722C9.12207 3.75299 9.44367 4.3392 9.59637 4.97639C9.74906 5.61359 9.72742 6.2791 9.53364 6.90543C9.51842 7.00061 9.52884 7.09803 9.56386 7.18803C9.59887 7.27804 9.65726 7.35747 9.73322 7.41846C9.80919 7.47944 9.90008 7.51984 9.99687 7.53565C10.0937 7.55146 10.193 7.54213 10.285 7.50858C10.7575 7.39723 10.9796 7.36475 11.2017 6.97038C11.4238 6.57601 11.8963 6.69664 12.1137 7.03998C12.4864 7.70689 12.7149 8.4422 12.7849 9.19985C12.8548 9.9575 12.7646 10.7212 12.52 11.443C12.2959 12.0847 11.9382 12.6735 11.4696 13.1719C11.001 13.6704 10.4318 14.0676 9.79825 14.3382C8.20109 14.9274 6.87327 14.9413 5.02566 13.9252C2.59684 12.5751 2.4409 9.23453 3.71202 7.37403Z" fill="#100D0A"/>
<path opacity="0.2" d="M3.70745 7.43902C5.02582 5.47645 6.79782 5.1192 7.11442 3.64843C7.30816 2.78545 7.94135 2.60451 8.71158 3.36077C9.48181 4.11703 9.85039 5.45325 9.47709 6.90083C9.38731 7.26736 9.74171 7.64317 10.2662 7.53646C10.7907 7.42975 10.9561 7.42975 11.1829 7.04465C11.4098 6.65956 11.887 6.76628 12.0949 7.10033C12.4575 7.7585 12.6781 8.4829 12.7431 9.22843C12.8082 9.97396 12.7162 10.7247 12.473 11.4338C12.2456 12.0755 11.8844 12.6636 11.4125 13.1605C10.9406 13.6574 10.3683 14.0522 9.73226 14.3196C8.12564 14.9042 6.89705 14.8996 5.04 13.8974C2.64897 12.5937 2.48359 9.29489 3.70745 7.43902Z" fill="black"/>
</g>
<g style="mix-blend-mode:screen">
<path d="M-0.33663 8.98425C0.650966 10.1488 5.22509 12.0789 8.44305 12C11.661 11.9212 15.5547 9.6802 15.5547 9.6802L15.1483 14.2874C15.1483 14.2874 12.4454 16.0968 7.97052 16.0968C5.07878 16.0375 2.22407 15.4458 -0.445312 14.3523L-0.33663 8.98425Z" fill="black"/>
<path d="M-0.218812 9.21619C0.797136 10.3761 5.18225 12.2644 8.40493 12.1995C11.6276 12.1345 15.4929 9.87966 15.4929 9.87966L15.1055 14.2502C15.1055 14.2502 12.4687 16.1061 8.01745 16.1061C5.14936 16.0591 2.31931 15.4535 -0.308594 14.3244L-0.218812 9.21619Z" fill="#0E080A"/>
<path d="M-0.10042 9.4436C0.94388 10.6035 5.14471 12.464 8.37211 12.3991C11.5995 12.3341 15.4081 10.056 15.4081 10.056L15.0301 14.19C15.0301 14.19 12.4595 16.0969 7.98464 16.0969C5.16682 16.058 2.38792 15.445 -0.176025 14.2967L-0.10042 9.4436Z" fill="#1B1014"/>
<path d="M0.0262732 9.67554C1.10365 10.8262 5.12019 12.6635 8.3476 12.5985C11.575 12.5336 15.3458 10.2462 15.3458 10.2462L14.9772 14.1435C14.9772 14.1435 12.4728 16.0968 7.99792 16.0968C5.21648 16.0701 2.47468 15.4462 -0.0351562 14.2688L0.0262732 9.67554Z" fill="#29181D"/>
<path d="M0.130734 9.90759C1.23174 11.0536 5.06871 12.8631 8.29612 12.7981C11.5235 12.7331 15.2613 10.4412 15.2613 10.4412L14.8974 14.0926C14.8974 14.0926 12.4591 16.0969 7.98425 16.0969C5.24509 16.0813 2.54641 15.4463 0.0976562 14.241L0.130734 9.90759Z" fill="#362127"/>
<path d="M0.25 10.1346C1.37936 11.2806 5.03204 13.0623 8.28308 12.9973C11.5341 12.9324 15.2104 10.6311 15.2104 10.6311L14.856 14.0459C14.856 14.0459 12.4934 16.0966 8.00901 16.0966C5.30829 16.0919 2.64905 15.4439 0.259451 14.2083L0.25 10.1346Z" fill="#442931"/>
<path d="M0.363281 10.3671C1.52571 11.5084 4.99411 13.2622 8.22152 13.1973C11.4489 13.1323 15.1111 10.8218 15.1111 10.8218L14.7661 13.9953C14.7661 13.9953 12.4602 16.097 7.98525 16.097C5.32149 16.105 2.6997 15.4455 0.368007 14.1809L0.363281 10.3671Z" fill="#51313B"/>
<path d="M0.5 10.599C1.69079 11.7311 4.97962 13.4617 8.2023 13.3828C11.425 13.3039 15.0399 11.0119 15.0399 11.0119L14.6996 13.9349C14.6996 13.9349 12.4598 16.0831 7.98494 16.0831C5.35886 16.1101 2.77366 15.4435 0.5 14.153V10.599Z" fill="#5F3944"/>
<path d="M0.597656 10.826C2.70908 12.593 5.38413 13.5779 8.1582 13.6098C11.3809 13.5449 14.9721 11.2204 14.9721 11.2204L14.6414 13.9114C14.6414 13.9114 12.4677 16.1106 7.99281 16.1106C5.39995 16.1451 2.85034 15.4565 0.640184 14.1248L0.597656 10.826Z" fill="#6D414E"/>
<path d="M0.710938 11.058C2.77095 12.7998 5.39236 13.7695 8.11082 13.7954C11.3382 13.7304 14.887 11.3967 14.887 11.3967L14.5656 13.8511C14.5656 13.8511 12.4581 16.0966 7.98324 16.0966C3.50834 16.0966 0.777092 14.097 0.777092 14.097L0.710938 11.058Z" fill="#7A4958"/>
<path d="M0.830078 11.2899C2.83294 13.0116 5.398 13.9712 8.05985 13.9948C11.3014 13.9345 14.8171 11.5869 14.8171 11.5869L14.5005 13.8C14.5005 13.8 12.4591 16.0966 7.98424 16.0966C3.50935 16.0966 0.896233 14.0691 0.896233 14.0691L0.830078 11.2899Z" fill="#885162"/>
<path d="M0.972656 11.5175C2.92378 13.2286 5.44456 14.1807 8.06067 14.1945C11.2881 14.1296 14.7659 11.7773 14.7659 11.7773L14.4588 13.7538C14.4588 13.7538 12.4836 16.0968 8.00869 16.0968C3.53379 16.0968 1.04826 14.0414 1.04826 14.0414L0.972656 11.5175Z" fill="#95596B"/>
<path d="M1.0625 11.7494C2.39032 12.8629 4.75299 14.4589 7.9993 14.3986C11.2456 14.3383 14.6762 11.9721 14.6762 11.9721L14.3832 13.7027C14.3832 13.7027 12.4695 16.0967 7.99457 16.0967C3.51968 16.0967 1.18536 14.0135 1.18536 14.0135L1.0625 11.7494Z" fill="#A36275"/>
<path d="M1.17969 11.9813C2.54059 13.0902 4.73787 14.6584 7.96055 14.5934C11.1832 14.5285 14.576 12.1623 14.576 12.1623L14.2878 13.6562C14.2878 13.6562 12.4402 16.0967 7.96527 16.0967C3.49038 16.0967 1.30255 13.9857 1.30255 13.9857L1.17969 11.9813Z" fill="#B06A7F"/>
<path d="M1.29688 12.2089C2.68612 13.3177 4.69912 14.8581 7.91235 14.7931C11.1256 14.7282 14.5278 12.3527 14.5278 12.3527L14.249 13.61C14.249 13.61 12.4676 16.0969 7.99268 16.0969C3.51778 16.0969 1.44336 13.9348 1.44336 13.9348L1.29688 12.2089Z" fill="#BE7289"/>
<path d="M1.41211 12.4408C2.82971 13.545 4.66314 15.0576 7.89055 14.9926C11.118 14.9276 14.4446 12.5429 14.4446 12.5429L14.1753 13.559C14.1753 13.559 12.46 16.0968 7.98506 16.0968C3.51016 16.0968 1.59167 13.9348 1.59167 13.9348L1.41211 12.4408Z" fill="#CB7A92"/>
<path d="M1.53125 12.6683C2.98193 13.7679 4.62635 15.2573 7.85375 15.1923C11.0812 15.1274 14.3747 12.7333 14.3747 12.7333L14.1101 13.5128C14.1101 13.5128 12.461 16.097 7.96716 16.097C3.47336 16.097 1.72971 13.8978 1.72971 13.8978L1.53125 12.6683Z" fill="#D9829C"/>
</g>
<g style="mix-blend-mode:multiply">
<path opacity="0.4" d="M12.7857 13.4337C12.8707 10.8494 10.716 11.035 10.716 9.12341C10.716 8.22796 9.96463 7.87999 9.10934 8.01454C3.33498 8.92391 2.5742 14.8024 6.17018 16.468C9.07627 17.8228 12.6959 15.5308 12.7857 13.4337Z" fill="white"/>
<path opacity="0.44" d="M12.6907 13.4335C12.7663 10.891 10.6304 11.0441 10.621 9.16039C10.621 8.29742 9.89329 7.96336 9.07581 8.10255C3.46683 9.06296 2.7155 14.8347 6.27368 16.44C9.13724 17.7345 12.6245 15.5121 12.6907 13.4335Z" fill="#FDF9F9"/>
<path opacity="0.48" d="M12.6058 13.4335C12.6767 10.9327 10.555 11.0487 10.5408 9.19287C10.5408 8.36702 9.83677 8.04224 9.05237 8.18607C3.61823 9.20215 2.86217 14.8625 6.392 16.4122C9.19413 17.6463 12.5491 15.4889 12.6058 13.4335Z" fill="#FAF4F2"/>
<path opacity="0.51" d="M12.5265 13.4337C12.5879 10.9746 10.4852 11.0582 10.4568 9.23013C10.4568 8.43211 9.7811 8.12125 9.03922 8.27436C3.76574 9.34148 3.00969 14.8905 6.51116 16.3845C9.25659 17.5537 12.4793 15.4705 12.5265 13.4337Z" fill="#F8EEEC"/>
<path opacity="0.55" d="M12.4459 13.4336C12.4979 11.0117 10.4093 11.0674 10.3762 9.25793C10.3762 8.49238 9.72883 8.1908 9.01058 8.32999C3.91666 9.48527 3.15588 14.9229 6.64318 16.3566C9.31772 17.4655 12.4034 15.4472 12.4459 13.4336Z" fill="#F6E9E6"/>
<path opacity="0.59" d="M12.3659 13.4337C12.4084 11.0535 10.3387 11.0767 10.2962 9.29973C10.2962 8.57131 9.67243 8.28365 8.99198 8.44604C4.06345 9.62451 3.32158 14.9416 6.74745 16.3334C9.37474 17.3774 12.3139 15.4287 12.3659 13.4337Z" fill="#F3E3DF"/>
<path opacity="0.63" d="M12.2839 13.4337C12.317 11.1139 10.2662 11.086 10.2142 9.33688C10.2142 8.64094 9.6141 8.36256 8.96673 8.52958C4.20831 9.75909 3.44753 14.9833 6.86395 16.2964C9.42981 17.2892 12.2556 15.4055 12.2839 13.4337Z" fill="#F1DDD9"/>
<path opacity="0.66" d="M12.2044 13.4336C12.2281 11.1138 10.1962 11.1138 10.1347 9.37393C10.1365 9.23533 10.1025 9.09854 10.0359 8.97631C9.96935 8.85409 9.87235 8.7504 9.75395 8.6749C9.63555 8.59941 9.49962 8.55457 9.35882 8.54456C9.21801 8.53455 9.07692 8.5597 8.94868 8.61766C4.35565 9.91677 3.59015 15.0157 6.97822 16.2545C9.47792 17.1825 12.1855 15.3869 12.2044 13.4336Z" fill="#EED8D3"/>
<path opacity="0.7" d="M12.1231 13.4336C12.1231 11.1787 10.1243 11.1138 10.0534 9.4064C10.055 9.27491 10.0222 9.14522 9.95827 9.02969C9.89431 8.91415 9.80129 8.81662 9.68806 8.74639C9.57484 8.67615 9.44519 8.63555 9.31146 8.62844C9.17772 8.62134 9.04437 8.64798 8.92409 8.70581C4.5059 10.0652 3.73567 15.0482 7.11428 16.2545C9.54783 17.1129 12.109 15.3637 12.1231 13.4336Z" fill="#ECD2CD"/>
<path opacity="0.74" d="M12.04 13.4337C12.04 11.2159 10.0554 11.1138 9.97032 9.44355C9.97254 9.31961 9.94209 9.19721 9.88192 9.08823C9.82175 8.97925 9.73392 8.88739 9.62694 8.82156C9.51996 8.75573 9.39746 8.71818 9.27134 8.71254C9.14522 8.7069 9.01976 8.73336 8.90712 8.78936C4.65432 10.2137 3.87936 15.0807 7.21545 16.2128C9.60647 17.0247 12.04 15.3266 12.04 13.4337Z" fill="#EACCC6"/>
<path opacity="0.78" d="M11.9587 13.4337C11.9587 11.2577 9.98351 11.1138 9.88901 9.48068C9.89202 9.36334 9.8635 9.2473 9.80632 9.14422C9.74913 9.04115 9.6653 8.95469 9.56326 8.89354C9.46123 8.83239 9.34458 8.79872 9.22507 8.79591C9.10557 8.7931 8.98741 8.82125 8.88251 8.87753C4.80454 10.3669 4.02486 15.1179 7.3326 16.185C9.66219 16.9412 11.9634 15.3266 11.9587 13.4337Z" fill="#E7C7C0"/>
<path opacity="0.81" d="M11.8788 13.4335C11.8788 11.2992 9.91307 11.1136 9.80911 9.51294C9.8111 9.40333 9.78354 9.29515 9.72922 9.19937C9.6749 9.10358 9.59574 9.02361 9.49979 8.96755C9.40383 8.91149 9.29449 8.88134 9.18284 8.88016C9.07119 8.87898 8.96121 8.90681 8.86404 8.96082C4.96091 10.5244 4.17178 15.1501 7.44644 16.1569C9.71933 16.8575 11.893 15.3264 11.8788 13.4335Z" fill="#E5C1BA"/>
<path opacity="0.85" d="M11.7989 13.4336C11.7989 11.3412 9.84262 11.1138 9.72921 9.55026C9.7323 9.44708 9.70682 9.34501 9.6555 9.25491C9.60417 9.16482 9.52892 9.09009 9.43776 9.03867C9.3466 8.98725 9.24294 8.96107 9.13782 8.96292C9.03271 8.96477 8.93007 8.99458 8.84084 9.04918C5.10783 10.687 4.30924 15.1874 7.58863 16.1293C9.78119 16.7696 11.8414 15.2802 11.7989 13.4336Z" fill="#E3BCB3"/>
<path opacity="0.89" d="M11.7187 13.4336C11.6903 11.3829 9.77658 11.1463 9.649 9.58737C9.6528 9.49052 9.62942 9.39451 9.58142 9.30982C9.53342 9.22513 9.46265 9.15501 9.37682 9.10713C9.291 9.05925 9.19343 9.03545 9.09476 9.03832C8.99609 9.04119 8.90012 9.07062 8.81734 9.1234C5.25916 10.8354 4.45585 15.2153 7.68325 16.0829C9.83801 16.686 11.747 15.2617 11.7187 13.4336Z" fill="#E0B6AD"/>
<path opacity="0.93" d="M11.6382 13.4337C11.6004 11.42 9.70556 11.1509 9.56852 9.61986C9.57656 9.52893 9.5571 9.43769 9.51259 9.35757C9.46807 9.27744 9.40048 9.21199 9.31826 9.1694C9.23605 9.12681 9.14286 9.10897 9.05037 9.11812C8.95788 9.12728 8.8702 9.16301 8.79829 9.22085C5.41495 11.0118 4.59747 15.2524 7.80125 16.0736C9.89457 16.6025 11.6713 15.2431 11.6382 13.4337Z" fill="#DEB0A7"/>
<path opacity="0.96" d="M11.5567 13.4335C11.5095 11.4617 9.63823 11.1601 9.4823 9.65683C9.48658 9.57435 9.4664 9.49243 9.42421 9.42099C9.38203 9.34955 9.31964 9.29166 9.24461 9.25434C9.16959 9.21701 9.08515 9.20186 9.00153 9.21071C8.9179 9.21956 8.83869 9.25204 8.7735 9.30421C5.57444 11.1833 4.75223 15.3265 7.91821 16.0456C9.95011 16.5235 11.5992 15.2198 11.5567 13.4335Z" fill="#DBABA0"/>
<path d="M11.4776 13.4336C11.4209 11.5035 9.58744 11.1695 9.40315 9.69408C9.40716 9.61881 9.38831 9.54407 9.34899 9.47934C9.30967 9.4146 9.25165 9.3628 9.1823 9.33049C9.11294 9.29818 9.03538 9.28683 8.95944 9.29787C8.88351 9.30891 8.81262 9.34185 8.75578 9.3925C5.74574 11.3597 4.881 15.3266 8.06116 16.0179C10.008 16.4401 11.5248 15.2013 11.4776 13.4336Z" fill="#D9A59A"/>
</g>
</g>
<mask id="mask1_7450_9101" style="mask-type:luminance" maskUnits="userSpaceOnUse" x="4" y="8" width="7" height="8">
<path d="M10.5783 12.9465C10.4223 11.0396 8.4566 10.687 8.80155 8.99817C8.81042 8.94233 8.80471 8.88519 8.78496 8.83211C8.76521 8.77903 8.73207 8.73173 8.68864 8.69465C8.6452 8.65756 8.5929 8.6319 8.53661 8.62007C8.48033 8.60824 8.42191 8.61062 8.36682 8.627C4.66688 9.69876 3.495 14.7838 6.80746 15.6375C8.87716 16.1711 10.7106 14.8627 10.5783 12.9465Z" fill="white"/>
</mask>
<g mask="url(#mask1_7450_9101)">
<path d="M10.5783 12.9465C10.4223 11.0396 8.4566 10.687 8.80155 8.99817C8.81042 8.94233 8.80471 8.88519 8.78496 8.83211C8.76521 8.77903 8.73207 8.73173 8.68864 8.69465C8.6452 8.65756 8.5929 8.6319 8.53661 8.62007C8.48033 8.60824 8.42191 8.61062 8.36682 8.627C4.66688 9.69876 3.495 14.7838 6.80746 15.6375C8.87716 16.1711 10.7106 14.8627 10.5783 12.9465Z" fill="url(#paint1_linear_7450_9101)"/>
<g style="mix-blend-mode:multiply">
<path d="M4.0849 7.66194C5.47887 6.12621 7.11384 5.75968 6.87285 4.19148C6.86497 4.13654 6.87095 4.08054 6.89027 4.02841C6.9096 3.97628 6.94167 3.9296 6.98367 3.89249C7.02567 3.85537 7.07631 3.82896 7.13114 3.81556C7.18597 3.80217 7.24331 3.8022 7.29813 3.81566C9.22134 4.24715 10.4972 5.93135 9.78838 8.20478C9.77757 8.23743 9.77573 8.27232 9.78307 8.3059C9.7904 8.33948 9.80664 8.37055 9.83014 8.39599C9.85365 8.42142 9.88358 8.4403 9.9169 8.45072C9.95023 8.46114 9.98577 8.46272 10.0199 8.45532C10.2637 8.38165 10.4855 8.25055 10.6659 8.07345C10.8462 7.89635 10.9797 7.67861 11.0548 7.43923C11.0781 7.39246 11.113 7.35219 11.1563 7.32212C11.1996 7.29206 11.2499 7.27315 11.3026 7.26715C11.3553 7.26114 11.4087 7.26823 11.4578 7.28776C11.507 7.30729 11.5504 7.33864 11.584 7.37892C12.089 8.05475 12.4277 8.83624 12.5737 9.66212C12.7196 10.488 12.6688 11.3358 12.4251 12.1392C12.2497 12.7245 11.9478 13.2657 11.5401 13.7261C11.1324 14.1864 10.6284 14.5551 10.0625 14.807C9.24746 15.1443 8.36411 15.2921 7.48134 15.239C6.59856 15.1859 5.74021 14.9333 4.97326 14.5008C2.3885 13.0068 2.23256 9.70338 4.0849 7.66194Z" fill="white"/>
<path d="M4.0849 7.62947C5.47887 6.09375 7.13274 5.72721 6.87285 4.13581C6.86497 4.08088 6.87095 4.02488 6.89027 3.97275C6.9096 3.92061 6.94167 3.87394 6.98367 3.83682C7.02567 3.79971 7.07631 3.77329 7.13114 3.7599C7.18597 3.7465 7.24331 3.74654 7.29813 3.76C9.22134 4.19613 10.4972 5.87568 9.78838 8.15375C9.77863 8.18613 9.7776 8.22044 9.78542 8.25333C9.79324 8.28621 9.80962 8.31653 9.83296 8.34133C9.85631 8.36612 9.88582 8.38453 9.91859 8.39476C9.95137 8.40498 9.98628 8.40667 10.0199 8.39965C10.2573 8.33106 10.4749 8.20829 10.6547 8.04137C10.8346 7.87446 10.9717 7.66813 11.0548 7.43925C11.0776 7.39216 11.1122 7.35148 11.1553 7.32095C11.1984 7.29042 11.2486 7.27103 11.3013 7.26456C11.354 7.25809 11.4075 7.26475 11.4569 7.28393C11.5063 7.3031 11.55 7.33418 11.584 7.37429C12.0891 8.05099 12.4278 8.83326 12.5737 9.65989C12.7197 10.4865 12.6688 11.3351 12.4251 12.1392C12.2488 12.7235 11.9465 13.2637 11.5389 13.7232C11.1312 14.1827 10.6277 14.5507 10.0625 14.8024C9.24746 15.1397 8.36411 15.2875 7.48134 15.2344C6.59856 15.1813 5.74021 14.9286 4.97326 14.4962C2.3885 13.0068 2.23256 9.67092 4.0849 7.62947Z" fill="url(#paint2_linear_7450_9101)"/>
<path d="M4.0849 7.597C5.47887 6.04735 7.11384 5.69474 6.87285 4.10798C6.86409 4.05269 6.86942 3.99613 6.88836 3.94336C6.90729 3.89058 6.93925 3.84324 6.98138 3.80556C7.0235 3.76787 7.07448 3.74102 7.12975 3.72741C7.18503 3.71379 7.24288 3.71383 7.29813 3.72753C9.22134 4.16365 10.4972 5.84785 9.78838 8.12128C9.77705 8.15376 9.77487 8.18864 9.78209 8.22224C9.78931 8.25583 9.80566 8.28688 9.8294 8.31209C9.85314 8.3373 9.88338 8.35573 9.91692 8.36543C9.95047 8.37513 9.98606 8.37573 10.0199 8.36718C10.2599 8.2978 10.4793 8.17257 10.6595 8.00214C10.8396 7.83171 10.9752 7.6211 11.0548 7.38821C11.0776 7.34113 11.1122 7.30044 11.1553 7.26992C11.1984 7.23939 11.2486 7.22 11.3013 7.21353C11.354 7.20706 11.4075 7.21372 11.4569 7.23289C11.5063 7.25207 11.55 7.28314 11.584 7.32326C12.0876 7.99887 12.4255 8.77954 12.5714 9.60442C12.7173 10.4293 12.6673 11.2761 12.4251 12.0789C12.2502 12.6638 11.9485 13.2047 11.5407 13.6644C11.1328 14.1241 10.6286 14.4917 10.0625 14.7421C9.24781 15.08 8.36467 15.2287 7.48189 15.1764C6.59912 15.1241 5.74059 14.8722 4.97326 14.4405C2.3885 12.9512 2.23256 9.64308 4.0849 7.597Z" fill="url(#paint3_linear_7450_9101)"/>
<path d="M4.08485 7.56917C5.47883 6.04736 7.1138 5.66691 6.8728 4.07551C6.86492 4.02057 6.87091 3.96458 6.89023 3.91244C6.90955 3.86031 6.94162 3.81363 6.98362 3.77652C7.02562 3.73941 7.07626 3.71299 7.13109 3.6996C7.18593 3.6862 7.24327 3.68624 7.29808 3.6997C9.2213 4.13119 10.4971 5.81538 9.78834 8.08881C9.77752 8.12147 9.77569 8.15635 9.78302 8.18993C9.79036 8.22351 9.8066 8.25459 9.8301 8.28002C9.8536 8.30545 9.88353 8.32433 9.91686 8.33475C9.95019 8.34517 9.98573 8.34676 10.0199 8.33935C10.26 8.26881 10.4794 8.14264 10.6595 7.97146C10.8396 7.80029 10.9751 7.58912 11.0547 7.35574C11.0781 7.30897 11.113 7.2687 11.1563 7.23864C11.1996 7.20857 11.2499 7.18966 11.3026 7.18366C11.3553 7.17765 11.4086 7.18474 11.4578 7.20427C11.507 7.2238 11.5504 7.25515 11.584 7.29543C12.0926 7.97398 12.4334 8.75946 12.5794 9.58971C12.7254 10.42 12.6726 11.2722 12.4251 12.0789C12.2496 12.6642 11.9478 13.2054 11.54 13.6658C11.1323 14.1262 10.6283 14.4948 10.0624 14.7467C9.24097 15.0815 8.35153 15.2244 7.46426 15.164C6.57699 15.1036 5.71613 14.8416 4.94959 14.3987C2.38846 12.9233 2.23252 9.61062 4.08485 7.56917Z" fill="url(#paint4_linear_7450_9101)"/>
<path d="M4.08485 7.5367C5.47883 6.00097 7.1327 5.63444 6.8728 4.04304C6.86492 3.9881 6.87091 3.93211 6.89023 3.87997C6.90955 3.82784 6.94162 3.78116 6.98362 3.74405C7.02562 3.70694 7.07626 3.68052 7.13109 3.66713C7.18593 3.65373 7.24327 3.65376 7.29808 3.66723C9.2213 4.10335 10.4971 5.78291 9.78834 8.06098C9.77858 8.09336 9.77756 8.12767 9.78538 8.16055C9.79319 8.19343 9.80958 8.22376 9.83292 8.24855C9.85627 8.27335 9.88577 8.29176 9.91855 8.30198C9.95132 8.31221 9.98624 8.3139 10.0199 8.30688C10.2593 8.23645 10.4782 8.11086 10.6582 7.94058C10.8382 7.77029 10.9741 7.56024 11.0547 7.32791C11.0776 7.28083 11.1122 7.24015 11.1552 7.20962C11.1983 7.17909 11.2485 7.1597 11.3012 7.15323C11.354 7.14676 11.4075 7.15342 11.4569 7.17259C11.5063 7.19177 11.55 7.22285 11.584 7.26296C12.089 7.93966 12.4278 8.72193 12.5737 9.54856C12.7196 10.3752 12.6687 11.2238 12.4251 12.0279C12.2487 12.6122 11.9465 13.1524 11.5388 13.6119C11.1312 14.0714 10.6277 14.4394 10.0624 14.691C9.24529 15.0342 8.35819 15.1864 7.47097 15.1357C6.58375 15.0849 5.72063 14.8327 4.94959 14.3987C2.38846 12.8909 2.23252 9.57815 4.08485 7.5367Z" fill="url(#paint5_linear_7450_9101)"/>
<path d="M4.0849 7.50416C5.47887 5.97308 7.11384 5.58335 6.87285 4.01514C6.86409 3.95985 6.86942 3.9033 6.88836 3.85052C6.90729 3.79775 6.93925 3.75041 6.98138 3.71272C7.0235 3.67504 7.07448 3.64819 7.12975 3.63457C7.18503 3.62096 7.24287 3.621 7.29813 3.63469C9.22134 4.07082 10.4972 5.75501 9.78838 8.02844C9.77705 8.06092 9.77487 8.09581 9.78209 8.1294C9.78931 8.16299 9.80566 8.19404 9.8294 8.21925C9.85314 8.24446 9.88338 8.2629 9.91692 8.27259C9.95047 8.28229 9.98606 8.2829 10.0199 8.27435C10.2599 8.20496 10.4793 8.07974 10.6595 7.90931C10.8396 7.73888 10.9752 7.52827 11.0548 7.29538C11.0776 7.24829 11.1122 7.20761 11.1553 7.17708C11.1984 7.14655 11.2486 7.12716 11.3013 7.12069C11.354 7.11422 11.4075 7.12088 11.4569 7.14006C11.5063 7.15923 11.55 7.19031 11.584 7.23042C12.0891 7.90712 12.4278 8.68939 12.5737 9.51602C12.7197 10.3427 12.6688 11.1912 12.4251 11.9953C12.2502 12.5803 11.9485 13.1212 11.5407 13.5808C11.1328 14.0405 10.6286 14.4082 10.0625 14.6585C9.24781 14.9965 8.36467 15.1451 7.48189 15.0928C6.59912 15.0405 5.74059 14.7887 4.97326 14.3569C2.3885 12.8583 2.23256 9.55025 4.0849 7.50416Z" fill="url(#paint6_linear_7450_9101)"/>
<path d="M4.0849 7.47633C5.47887 5.94061 7.11384 5.58336 6.87285 3.98268C6.86497 3.92774 6.87095 3.87174 6.89027 3.81961C6.9096 3.76747 6.94167 3.7208 6.98367 3.68369C7.02567 3.64657 7.07631 3.62016 7.13114 3.60676C7.18597 3.59337 7.24331 3.5934 7.29813 3.60686C9.22134 4.03835 10.4972 5.72254 9.78838 7.99598C9.77757 8.02863 9.77573 8.06352 9.78307 8.0971C9.7904 8.13067 9.80664 8.16175 9.83014 8.18719C9.85365 8.21262 9.88358 8.2315 9.9169 8.24192C9.95023 8.25234 9.98577 8.25392 10.0199 8.24652C10.2601 8.17598 10.4794 8.04981 10.6595 7.87863C10.8396 7.70745 10.9752 7.49628 11.0548 7.26291C11.0781 7.21614 11.113 7.17587 11.1563 7.1458C11.1996 7.11573 11.2499 7.09683 11.3026 7.09082C11.3553 7.08482 11.4087 7.09191 11.4578 7.11144C11.507 7.13097 11.5504 7.16231 11.584 7.20259C12.089 7.87843 12.4277 8.65991 12.5737 9.48579C12.7196 10.3117 12.6688 11.1595 12.4251 11.9629C12.2497 12.5481 11.9478 13.0894 11.5401 13.5498C11.1324 14.0101 10.6284 14.3788 10.0625 14.6307C9.24746 14.968 8.36411 15.1158 7.48134 15.0627C6.59856 15.0096 5.74021 14.7569 4.97326 14.3245C2.3885 12.8305 2.23256 9.51778 4.0849 7.47633Z" fill="url(#paint7_linear_7450_9101)"/>
<path d="M4.0849 7.43922C5.47887 5.9035 7.13274 5.53697 6.87285 3.94557C6.86497 3.89063 6.87095 3.83463 6.89027 3.7825C6.9096 3.73036 6.94167 3.68369 6.98367 3.64658C7.02567 3.60946 7.07631 3.58305 7.13114 3.56965C7.18597 3.55626 7.24331 3.55629 7.29813 3.56975C9.22134 4.00588 10.4972 5.68544 9.78838 7.96351C9.77863 7.99588 9.7776 8.0302 9.78542 8.06308C9.79324 8.09596 9.80962 8.12629 9.83296 8.15108C9.85631 8.17587 9.88582 8.19428 9.91859 8.20451C9.95137 8.21474 9.98628 8.21642 10.0199 8.20941C10.2594 8.13898 10.4782 8.01339 10.6582 7.8431C10.8382 7.67282 10.9742 7.46276 11.0548 7.23044C11.0776 7.18335 11.1122 7.14267 11.1553 7.11214C11.1984 7.08162 11.2486 7.06222 11.3013 7.05575C11.354 7.04928 11.4075 7.05594 11.4569 7.07512C11.5063 7.0943 11.55 7.12537 11.584 7.16548C12.0891 7.84218 12.4278 8.62445 12.5737 9.45109C12.7197 10.2777 12.6688 11.1263 12.4251 11.9304C12.2488 12.5147 11.9465 13.0549 11.5389 13.5144C11.1312 13.9739 10.6277 14.3419 10.0625 14.5936C9.24746 14.9309 8.36411 15.0787 7.48134 15.0256C6.59856 14.9725 5.74021 14.7198 4.97326 14.2874C2.3885 12.798 2.23256 9.48531 4.0849 7.43922Z" fill="url(#paint8_linear_7450_9101)"/>
<path d="M4.0849 7.41139C5.47887 5.8803 7.13274 5.50913 6.87285 3.92237C6.86409 3.86708 6.86942 3.81052 6.88836 3.75775C6.90729 3.70498 6.93925 3.65763 6.98138 3.61995C7.0235 3.58227 7.07448 3.55541 7.12975 3.5418C7.18503 3.52818 7.24287 3.52822 7.29813 3.54192C9.22134 3.97805 10.4972 5.66224 9.78838 7.93567C9.77705 7.96815 9.77487 8.00304 9.78209 8.03663C9.78931 8.07022 9.80566 8.10127 9.8294 8.12648C9.85314 8.15169 9.88338 8.17012 9.91692 8.17982C9.95047 8.18952 9.98606 8.19013 10.0199 8.18157C10.2599 8.11219 10.4793 7.98697 10.6595 7.81653C10.8396 7.6461 10.9752 7.4355 11.0548 7.2026C11.0776 7.15552 11.1122 7.11484 11.1553 7.08431C11.1984 7.05378 11.2486 7.03439 11.3013 7.02792C11.354 7.02145 11.4075 7.02811 11.4569 7.04729C11.5063 7.06646 11.55 7.09754 11.584 7.13765C12.0891 7.81435 12.4278 8.59662 12.5737 9.42325C12.7197 10.2499 12.6688 11.0985 12.4251 11.9026C12.2502 12.4875 11.9485 13.0284 11.5407 13.4881C11.1328 13.9478 10.6286 14.3154 10.0625 14.5657C9.24781 14.9037 8.36467 15.0524 7.48189 15C6.59912 14.9477 5.74059 14.6959 4.97326 14.2642C2.3885 12.7655 2.23256 9.45748 4.0849 7.41139Z" fill="url(#paint9_linear_7450_9101)"/>
<path d="M4.0849 7.38356C5.47887 5.84784 7.13274 5.4813 6.87285 3.8899C6.86497 3.83496 6.87095 3.77897 6.89027 3.72683C6.9096 3.6747 6.94167 3.62803 6.98367 3.59091C7.02567 3.5538 7.07631 3.52738 7.13114 3.51399C7.18597 3.50059 7.24331 3.50063 7.29813 3.51409C9.22134 3.94558 10.4972 5.62977 9.78838 7.9032C9.77757 7.93586 9.77573 7.97074 9.78307 8.00432C9.7904 8.0379 9.80664 8.06898 9.83014 8.09441C9.85365 8.11984 9.88358 8.13873 9.9169 8.14914C9.95023 8.15956 9.98577 8.16115 10.0199 8.15374C10.2601 8.08321 10.4794 7.95703 10.6595 7.78586C10.8396 7.61468 10.9752 7.40351 11.0548 7.17014C11.0781 7.12336 11.113 7.0831 11.1563 7.05303C11.1996 7.02296 11.2499 7.00405 11.3026 6.99805C11.3553 6.99205 11.4087 6.99913 11.4578 7.01866C11.507 7.03819 11.5504 7.06954 11.584 7.10982C12.089 7.78566 12.4277 8.56714 12.5737 9.39302C12.7196 10.2189 12.6688 11.0667 12.4251 11.8701C12.2497 12.4554 11.9478 12.9966 11.5401 13.457C11.1324 13.9173 10.6284 14.286 10.0625 14.5379C9.24746 14.8752 8.36411 15.023 7.48134 14.9699C6.59856 14.9168 5.74021 14.6642 4.97326 14.2317C2.3885 12.7377 2.23256 9.42501 4.0849 7.38356Z" fill="url(#paint10_linear_7450_9101)"/>
<path d="M4.0849 7.35109C5.47887 5.81536 7.13274 5.44883 6.87285 3.85743C6.86497 3.80249 6.87095 3.7465 6.89027 3.69436C6.9096 3.64223 6.94167 3.59555 6.98367 3.55844C7.02567 3.52133 7.07631 3.49491 7.13114 3.48152C7.18597 3.46812 7.24331 3.46816 7.29813 3.48162C9.22134 3.91775 10.4972 5.5973 9.78838 7.87537C9.77863 7.90775 9.7776 7.94206 9.78542 7.97494C9.79324 8.00783 9.80962 8.03815 9.83296 8.06294C9.85631 8.08774 9.88582 8.10615 9.91859 8.11637C9.95137 8.1266 9.98628 8.12829 10.0199 8.12127C10.2594 8.05084 10.4782 7.92525 10.6582 7.75497C10.8382 7.58468 10.9742 7.37463 11.0548 7.14231C11.0776 7.09522 11.1122 7.05454 11.1553 7.02401C11.1984 6.99348 11.2486 6.97409 11.3013 6.96762C11.354 6.96115 11.4075 6.96781 11.4569 6.98699C11.5063 7.00616 11.55 7.03724 11.584 7.07735C12.0891 7.75405 12.4278 8.53632 12.5737 9.36295C12.7197 10.1896 12.6688 11.0382 12.4251 11.8423C12.2496 12.4269 11.9477 12.9675 11.54 13.4272C11.1322 13.8868 10.6282 14.2546 10.0625 14.5054C9.24746 14.8427 8.36411 14.9906 7.48134 14.9375C6.59856 14.8843 5.74021 14.6317 4.97326 14.1992C2.3885 12.7052 2.23256 9.39254 4.0849 7.35109Z" fill="url(#paint11_linear_7450_9101)"/>
<path d="M4.0849 7.31862C5.47887 5.78753 7.13274 5.41636 6.87285 3.8296C6.86409 3.77431 6.86942 3.71775 6.88836 3.66498C6.90729 3.6122 6.93925 3.56486 6.98138 3.52718C7.0235 3.48949 7.07448 3.46264 7.12975 3.44902C7.18503 3.43541 7.24287 3.43545 7.29813 3.44914C9.22134 3.88527 10.4972 5.56947 9.78838 7.8429C9.77705 7.87538 9.77487 7.91026 9.78209 7.94385C9.78931 7.97745 9.80566 8.0085 9.8294 8.03371C9.85314 8.05892 9.88338 8.07735 9.91692 8.08705C9.95047 8.09675 9.98606 8.09735 10.0199 8.0888C10.2599 8.01942 10.4793 7.89419 10.6595 7.72376C10.8396 7.55333 10.9752 7.34272 11.0548 7.10983C11.0781 7.06306 11.113 7.02279 11.1563 6.99272C11.1996 6.96265 11.2499 6.94375 11.3026 6.93775C11.3553 6.93174 11.4087 6.93883 11.4578 6.95836C11.507 6.97789 11.5504 7.00923 11.584 7.04952C12.089 7.72535 12.4277 8.50683 12.5737 9.33271C12.7196 10.1586 12.6688 11.0064 12.4251 11.8098C12.2502 12.3947 11.9485 12.9356 11.5407 13.3953C11.1328 13.855 10.6286 14.2226 10.0625 14.473C9.24781 14.8109 8.36467 14.9596 7.48189 14.9073C6.59912 14.855 5.74059 14.6031 4.97326 14.1714C2.3885 12.6728 2.23256 9.3647 4.0849 7.31862Z" fill="url(#paint12_linear_7450_9101)"/>
<path d="M4.0849 7.29079C5.47887 5.75506 7.13274 5.38853 6.87285 3.79713C6.86497 3.74219 6.87095 3.6862 6.89027 3.63406C6.9096 3.58193 6.94167 3.53525 6.98367 3.49814C7.02567 3.46103 7.07631 3.43461 7.13114 3.42121C7.18597 3.40782 7.24331 3.40785 7.29813 3.42132C9.22134 3.8528 10.4972 5.537 9.78838 7.81043C9.77757 7.84309 9.77573 7.87797 9.78307 7.91155C9.7904 7.94513 9.80664 7.97621 9.83014 8.00164C9.85365 8.02707 9.88358 8.04595 9.9169 8.05637C9.95023 8.06679 9.98577 8.06838 10.0199 8.06097C10.2601 7.99043 10.4794 7.86426 10.6595 7.69308C10.8396 7.5219 10.9752 7.31073 11.0548 7.07736C11.0781 7.03059 11.113 6.99032 11.1563 6.96025C11.1996 6.93019 11.2499 6.91128 11.3026 6.90528C11.3553 6.89927 11.4087 6.90636 11.4578 6.92589C11.507 6.94542 11.5504 6.97676 11.584 7.01705C12.089 7.69288 12.4277 8.47436 12.5737 9.30025C12.7196 10.1261 12.6688 10.974 12.4251 11.7773C12.2497 12.3626 11.9478 12.9038 11.5401 13.3642C11.1324 13.8246 10.6284 14.1933 10.0625 14.4451C9.24746 14.7824 8.36411 14.9303 7.48134 14.8772C6.59856 14.824 5.74021 14.5714 4.97326 14.1389C2.3885 12.6449 2.23256 9.33223 4.0849 7.29079Z" fill="url(#paint13_linear_7450_9101)"/>
<path d="M4.0849 7.25832C5.47887 5.72259 7.13274 5.35606 6.87285 3.76466C6.86497 3.70972 6.87095 3.65372 6.89027 3.60159C6.9096 3.54946 6.94167 3.50278 6.98367 3.46567C7.02567 3.42855 7.07631 3.40214 7.13114 3.38874C7.18597 3.37535 7.24331 3.37538 7.29813 3.38885C9.22134 3.82497 10.4972 5.50453 9.78838 7.7826C9.77863 7.81498 9.7776 7.84929 9.78542 7.88217C9.79324 7.91505 9.80962 7.94538 9.83296 7.97017C9.85631 7.99496 9.88582 8.01338 9.91859 8.0236C9.95137 8.03383 9.98628 8.03551 10.0199 8.0285C10.2594 7.95807 10.4782 7.83248 10.6582 7.66219C10.8382 7.49191 10.9742 7.28186 11.0548 7.04953C11.0767 7.0018 11.1105 6.96028 11.1532 6.92882C11.1958 6.89737 11.2458 6.87699 11.2986 6.86958C11.3514 6.86218 11.4052 6.86799 11.4551 6.88647C11.505 6.90495 11.5494 6.9355 11.584 6.9753C12.0891 7.652 12.4278 8.43427 12.5737 9.2609C12.7197 10.0875 12.6688 10.9361 12.4251 11.7402C12.2496 12.3249 11.9477 12.8655 11.54 13.3251C11.1322 13.7847 10.6282 14.1525 10.0625 14.4034C9.24746 14.7407 8.36411 14.8885 7.48134 14.8354C6.59856 14.7823 5.74021 14.5296 4.97326 14.0972C2.3885 12.6125 2.23256 9.29512 4.0849 7.25832Z" fill="url(#paint14_linear_7450_9101)"/>
<path d="M4.0849 7.22584C5.47887 5.69476 7.11384 5.32359 6.87285 3.72755C6.86409 3.67226 6.86942 3.6157 6.88836 3.56293C6.90729 3.51015 6.93925 3.46281 6.98138 3.42512C7.0235 3.38744 7.07448 3.36059 7.12975 3.34697C7.18503 3.33336 7.24287 3.3334 7.29813 3.34709C9.22134 3.78322 10.4972 5.46742 9.78838 7.74085C9.77705 7.77332 9.77487 7.80821 9.78209 7.8418C9.78931 7.8754 9.80566 7.90645 9.8294 7.93166C9.85314 7.95687 9.88338 7.9753 9.91692 7.985C9.95047 7.9947 9.98606 7.9953 10.0199 7.98675C10.2599 7.91737 10.4793 7.79214 10.6595 7.62171C10.8396 7.45128 10.9752 7.24067 11.0548 7.00778C11.0807 6.96281 11.1177 6.92491 11.1624 6.89751C11.207 6.87011 11.2579 6.85407 11.3104 6.85085C11.363 6.84762 11.4155 6.85731 11.4633 6.87904C11.5111 6.90078 11.5525 6.93386 11.584 6.9753C12.089 7.65114 12.4277 8.43262 12.5737 9.2585C12.7196 10.0844 12.6688 10.9322 12.4251 11.7356C12.2502 12.3205 11.9485 12.8614 11.5407 13.3211C11.1328 13.7808 10.6286 14.1484 10.0625 14.3987C9.24781 14.7367 8.36467 14.8854 7.48189 14.8331C6.59912 14.7807 5.74059 14.5289 4.97326 14.0972C2.3885 12.58 2.23256 9.29513 4.0849 7.22584Z" fill="url(#paint15_linear_7450_9101)"/>
<path d="M4.0849 7.19795C5.47887 5.66222 7.11384 5.29569 6.87285 3.72749C6.86497 3.67255 6.87095 3.61655 6.89027 3.56442C6.9096 3.51229 6.94167 3.46561 6.98367 3.4285C7.02567 3.39138 7.07631 3.36497 7.13114 3.35157C7.18597 3.33818 7.24331 3.33821 7.29813 3.35168C9.22134 3.78316 10.4972 5.46736 9.78838 7.74079C9.77757 7.77344 9.77573 7.80833 9.78307 7.84191C9.7904 7.87549 9.80664 7.90657 9.83014 7.932C9.85365 7.95743 9.88358 7.97631 9.9169 7.98673C9.95023 7.99715 9.98577 7.99873 10.0199 7.99133C10.2637 7.91766 10.4855 7.78656 10.6659 7.60946C10.8462 7.43236 10.9797 7.21463 11.0548 6.97524C11.0781 6.92847 11.113 6.8882 11.1563 6.85814C11.1996 6.82807 11.2499 6.80916 11.3026 6.80316C11.3553 6.79715 11.4087 6.80424 11.4578 6.82377C11.507 6.8433 11.5504 6.87465 11.584 6.91493C12.089 7.59076 12.4277 8.37225 12.5737 9.19813C12.7196 10.024 12.6688 10.8719 12.4251 11.6752C12.2497 12.2605 11.9478 12.8017 11.5401 13.2621C11.1324 13.7225 10.6284 14.0911 10.0625 14.343C9.24746 14.6803 8.36411 14.8282 7.48134 14.775C6.59856 14.7219 5.74021 14.4693 4.97326 14.0368C2.3885 12.5428 2.23256 9.23939 4.0849 7.19795Z" fill="url(#paint16_linear_7450_9101)"/>
<path d="M4.0849 7.16548C5.47887 5.62976 7.13274 5.26322 6.87285 3.67182C6.86497 3.61689 6.87095 3.56089 6.89027 3.50876C6.9096 3.45662 6.94167 3.40995 6.98367 3.37283C7.02567 3.33572 7.07631 3.3093 7.13114 3.29591C7.18597 3.28251 7.24331 3.28255 7.29813 3.29601C9.22134 3.73214 10.4972 5.41169 9.78838 7.68976C9.77705 7.72224 9.77487 7.75713 9.78209 7.79072C9.78931 7.82431 9.80566 7.85536 9.8294 7.88057C9.85314 7.90578 9.88338 7.92422 9.91692 7.93391C9.95047 7.94361 9.98606 7.94422 10.0199 7.93566C10.2573 7.86707 10.4749 7.7443 10.6547 7.57738C10.8346 7.41047 10.9717 7.20414 11.0548 6.97526C11.0776 6.92817 11.1122 6.88749 11.1553 6.85696C11.1984 6.82643 11.2486 6.80704 11.3013 6.80057C11.354 6.7941 11.4075 6.80076 11.4569 6.81994C11.5063 6.83911 11.55 6.87019 11.584 6.9103C12.0891 7.587 12.4278 8.36927 12.5737 9.1959C12.7197 10.0225 12.6688 10.8711 12.4251 11.6752C12.2502 12.2602 11.9485 12.801 11.5407 13.2607C11.1328 13.7204 10.6286 14.088 10.0625 14.3384C9.24746 14.6757 8.36411 14.8235 7.48134 14.7704C6.59856 14.7173 5.74021 14.4646 4.97326 14.0322C2.3885 12.5428 2.23256 9.20693 4.0849 7.16548Z" fill="url(#paint17_linear_7450_9101)"/>
<path d="M4.0849 7.12373C5.47887 5.58337 7.11384 5.22148 6.87285 3.63007C6.86497 3.57514 6.87095 3.51914 6.89027 3.46701C6.9096 3.41487 6.94167 3.3682 6.98367 3.33109C7.02567 3.29397 7.07631 3.26756 7.13114 3.25416C7.18597 3.24077 7.24331 3.2408 7.29813 3.25426C9.22134 3.69039 10.4972 5.37458 9.78838 7.64801C9.77705 7.68049 9.77487 7.71538 9.78209 7.74897C9.78931 7.78257 9.80566 7.81361 9.8294 7.83882C9.85314 7.86403 9.88338 7.88247 9.91692 7.89217C9.95047 7.90187 9.98606 7.90247 10.0199 7.89392C10.2594 7.82349 10.4782 7.6979 10.6582 7.52761C10.8382 7.35733 10.9742 7.14727 11.0548 6.91495C11.0776 6.86786 11.1122 6.82718 11.1553 6.79665C11.1984 6.76613 11.2486 6.74673 11.3013 6.74026C11.354 6.73379 11.4075 6.74045 11.4569 6.75963C11.5063 6.77881 11.55 6.80988 11.584 6.84999C12.0891 7.52669 12.4278 8.30896 12.5737 9.1356C12.7197 9.96223 12.6688 10.8108 12.4251 11.6149C12.2502 12.1999 11.9485 12.7407 11.5407 13.2004C11.1328 13.6601 10.6286 14.0277 10.0625 14.2781C9.24746 14.6154 8.36411 14.7632 7.48134 14.7101C6.59856 14.657 5.74021 14.4043 4.97326 13.9719C2.3885 12.4779 2.23256 9.16518 4.0849 7.12373Z" fill="url(#paint18_linear_7450_9101)"/>
<path d="M4.08485 7.08198C5.47883 5.54626 7.1327 5.17972 6.8728 3.59296C6.86405 3.53767 6.86937 3.48112 6.88831 3.42834C6.90725 3.37557 6.93921 3.32823 6.98133 3.29054C7.02346 3.25286 7.07444 3.22601 7.12971 3.21239C7.18498 3.19878 7.24283 3.19882 7.29808 3.21251C9.2213 3.64864 10.4971 5.33283 9.78834 7.60626C9.777 7.63874 9.77483 7.67363 9.78205 7.70722C9.78927 7.74081 9.80562 7.77186 9.82936 7.79707C9.85309 7.82228 9.88334 7.84072 9.91688 7.85041C9.95042 7.86011 9.98602 7.86072 10.0199 7.85217C10.2593 7.78174 10.4782 7.65615 10.6582 7.48586C10.8382 7.31558 10.9741 7.10552 11.0547 6.8732C11.0776 6.82611 11.1122 6.78543 11.1552 6.7549C11.1983 6.72437 11.2485 6.70498 11.3012 6.69851C11.354 6.69204 11.4075 6.6987 11.4569 6.71788C11.5063 6.73705 11.55 6.76813 11.584 6.80824C12.089 7.48494 12.4278 8.26721 12.5737 9.09384C12.7196 9.92048 12.6687 10.769 12.4251 11.5732C12.2502 12.1581 11.9484 12.699 11.5406 13.1587C11.1328 13.6184 10.6285 13.986 10.0624 14.2363C9.24482 14.5791 8.35717 14.7304 7.46975 14.678C6.58233 14.6257 5.7195 14.3712 4.94959 13.9348C2.38846 12.4361 2.23252 9.12343 4.08485 7.08198Z" fill="url(#paint19_linear_7450_9101)"/>
<path d="M4.0849 7.04023C5.47887 5.50451 7.11384 5.11942 6.87285 3.55121C6.86409 3.49593 6.86942 3.43937 6.88836 3.3866C6.90729 3.33382 6.93925 3.28648 6.98138 3.24879C7.0235 3.21111 7.07448 3.18426 7.12975 3.17064C7.18503 3.15703 7.24287 3.15707 7.29813 3.17076C9.22134 3.60689 10.4972 5.29109 9.78838 7.56452C9.77705 7.59699 9.77487 7.63188 9.78209 7.66547C9.78931 7.69907 9.80566 7.73011 9.8294 7.75532C9.85314 7.78054 9.88338 7.79897 9.91692 7.80867C9.95047 7.81837 9.98606 7.81897 10.0199 7.81042C10.2594 7.73999 10.4782 7.6144 10.6582 7.44411C10.8382 7.27383 10.9742 7.06377 11.0548 6.83145C11.0776 6.78436 11.1122 6.74368 11.1553 6.71315C11.1984 6.68263 11.2486 6.66323 11.3013 6.65676C11.354 6.65029 11.4075 6.65695 11.4569 6.67613C11.5063 6.69531 11.55 6.72638 11.584 6.76649C12.0891 7.44319 12.4278 8.22546 12.5737 9.0521C12.7197 9.87873 12.6688 10.7273 12.4251 11.5314C12.2502 12.1164 11.9485 12.6572 11.5407 13.1169C11.1328 13.5766 10.6286 13.9442 10.0625 14.1946C9.2477 14.5329 8.3642 14.6813 7.48124 14.6282C6.59827 14.5751 5.73984 14.3219 4.97326 13.8884C2.3885 12.3944 2.23256 9.08168 4.0849 7.04023Z" fill="url(#paint20_linear_7450_9101)"/>
<path d="M4.0849 6.99849C5.47887 5.46276 7.11384 5.11943 6.87285 3.50947C6.86409 3.45418 6.86942 3.39762 6.88836 3.34485C6.90729 3.29207 6.93925 3.24473 6.98138 3.20705C7.0235 3.16936 7.07448 3.14251 7.12975 3.1289C7.18503 3.11528 7.24287 3.11532 7.29813 3.12902C9.22134 3.56514 10.4972 5.24934 9.78838 7.52277C9.77705 7.55525 9.77487 7.59013 9.78209 7.62372C9.78931 7.65732 9.80566 7.68837 9.8294 7.71358C9.85314 7.73879 9.88338 7.75722 9.91692 7.76692C9.95047 7.77662 9.98606 7.77722 10.0199 7.76867C10.2594 7.69824 10.4782 7.57265 10.6582 7.40236C10.8382 7.23208 10.9742 7.02203 11.0548 6.7897C11.0776 6.74261 11.1122 6.70193 11.1553 6.67141C11.1984 6.64088 11.2486 6.62149 11.3013 6.61502C11.354 6.60855 11.4075 6.61521 11.4569 6.63438C11.5063 6.65356 11.55 6.68463 11.584 6.72475C12.0891 7.40145 12.4278 8.18372 12.5737 9.01035C12.7197 9.83698 12.6688 10.6856 12.4251 11.4897C12.2502 12.0746 11.9485 12.6155 11.5407 13.0752C11.1328 13.5349 10.6286 13.9025 10.0625 14.1528C9.2477 14.4912 8.3642 14.6396 7.48124 14.5865C6.59827 14.5333 5.73984 14.2801 4.97326 13.8466C2.3885 12.3526 2.23256 9.03993 4.0849 6.99849Z" fill="url(#paint21_linear_7450_9101)"/>
<path d="M4.0849 6.97529C5.47887 5.43957 7.13274 5.07304 6.87285 3.48627C6.86409 3.43098 6.86942 3.37443 6.88836 3.32165C6.90729 3.26888 6.93925 3.22154 6.98138 3.18385C7.0235 3.14617 7.07448 3.11932 7.12975 3.1057C7.18503 3.09209 7.24287 3.09213 7.29813 3.10582C9.22134 3.54195 10.4972 5.22614 9.78838 7.49957C9.77705 7.53205 9.77487 7.56694 9.78209 7.60053C9.78931 7.63413 9.80566 7.66517 9.8294 7.69038C9.85314 7.71559 9.88338 7.73403 9.91692 7.74372C9.95047 7.75342 9.98606 7.75403 10.0199 7.74548C10.2594 7.67505 10.4782 7.54946 10.6582 7.37917C10.8382 7.20889 10.9742 6.99883 11.0548 6.76651C11.0776 6.71942 11.1122 6.67874 11.1553 6.64821C11.1984 6.61769 11.2486 6.59829 11.3013 6.59182C11.354 6.58535 11.4075 6.59201 11.4569 6.61119C11.5063 6.63036 11.55 6.66144 11.584 6.70155C12.0891 7.37825 12.4278 8.16052 12.5737 8.98715C12.7197 9.81379 12.6688 10.6624 12.4251 11.4665C12.2502 12.0514 11.9485 12.5923 11.5407 13.052C11.1328 13.5117 10.6286 13.8793 10.0625 14.1296C9.24781 14.4676 8.36467 14.6163 7.48189 14.5639C6.59912 14.5116 5.74059 14.2598 4.97326 13.8281C2.3885 12.3109 2.23256 8.99818 4.0849 6.97529Z" fill="url(#paint22_linear_7450_9101)"/>
<path d="M4.0849 6.91493C5.47887 5.38384 7.13274 5.01267 6.87285 3.42591C6.86409 3.37062 6.86942 3.31406 6.88836 3.26129C6.90729 3.20852 6.93925 3.16117 6.98138 3.12349C7.0235 3.08581 7.07448 3.05895 7.12975 3.04534C7.18503 3.03172 7.24287 3.03176 7.29813 3.04546C9.22134 3.48159 10.4972 5.16578 9.78838 7.43921C9.77705 7.47169 9.77487 7.50658 9.78209 7.54017C9.78931 7.57376 9.80566 7.60481 9.8294 7.63002C9.85314 7.65523 9.88338 7.67366 9.91692 7.68336C9.95047 7.69306 9.98606 7.69367 10.0199 7.68511C10.2594 7.61468 10.4782 7.48909 10.6582 7.31881C10.8382 7.14852 10.9742 6.93847 11.0548 6.70614C11.0776 6.65906 11.1122 6.61838 11.1553 6.58785C11.1984 6.55732 11.2486 6.53793 11.3013 6.53146C11.354 6.52499 11.4075 6.53165 11.4569 6.55082C11.5063 6.57 11.55 6.60108 11.584 6.64119C12.0891 7.31789 12.4278 8.10016 12.5737 8.92679C12.7197 9.75342 12.6688 10.602 12.4251 11.4061C12.2502 11.9911 11.9485 12.5319 11.5407 12.9916C11.1328 13.4513 10.6286 13.8189 10.0625 14.0693C9.24781 14.4073 8.36467 14.5559 7.48189 14.5036C6.59912 14.4513 5.74059 14.1994 4.97326 13.7677C2.3885 12.2691 2.23256 8.96102 4.0849 6.91493Z" fill="url(#paint23_linear_7450_9101)"/>
<path d="M4.0849 6.87318C5.47887 5.3421 7.13274 4.97092 6.87285 3.38416C6.86409 3.32887 6.86942 3.27232 6.88836 3.21954C6.90729 3.16677 6.93925 3.11943 6.98138 3.08174C7.0235 3.04406 7.07448 3.01721 7.12975 3.00359C7.18503 2.98997 7.24287 2.99001 7.29813 3.00371C9.22134 3.43984 10.4972 5.12403 9.78838 7.39746C9.77705 7.42994 9.77487 7.46483 9.78209 7.49842C9.78931 7.53201 9.80566 7.56306 9.8294 7.58827C9.85314 7.61348 9.88338 7.63191 9.91692 7.64161C9.95047 7.65131 9.98606 7.65192 10.0199 7.64336C10.2594 7.57293 10.4782 7.44735 10.6582 7.27706C10.8382 7.10677 10.9742 6.89672 11.0548 6.6644C11.0776 6.61731 11.1122 6.57663 11.1553 6.5461C11.1984 6.51557 11.2486 6.49618 11.3013 6.48971C11.354 6.48324 11.4075 6.4899 11.4569 6.50908C11.5063 6.52825 11.55 6.55933 11.584 6.59944C12.0891 7.27614 12.4278 8.05841 12.5737 8.88504C12.7197 9.71168 12.6688 10.5602 12.4251 11.3644C12.2502 11.9493 11.9485 12.4902 11.5407 12.9499C11.1328 13.4096 10.6286 13.7772 10.0625 14.0275C9.24781 14.3655 8.36467 14.5141 7.48189 14.4618C6.59912 14.4095 5.74059 14.1577 4.97326 13.7259C2.3885 12.2273 2.23256 8.91927 4.0849 6.87318Z" fill="url(#paint24_linear_7450_9101)"/>
<path d="M4.0849 6.83143C5.47887 5.30035 7.13274 4.92918 6.87285 3.34241C6.86409 3.28713 6.86942 3.23057 6.88836 3.17779C6.90729 3.12502 6.93925 3.07768 6.98138 3.03999C7.0235 3.00231 7.07448 2.97546 7.12975 2.96184C7.18503 2.94823 7.24287 2.94827 7.29813 2.96196C9.22134 3.39809 10.4972 5.08228 9.78838 7.35571C9.77705 7.38819 9.77487 7.42308 9.78209 7.45667C9.78931 7.49027 9.80566 7.52131 9.8294 7.54652C9.85314 7.57173 9.88338 7.59017 9.91692 7.59987C9.95047 7.60956 9.98606 7.61017 10.0199 7.60162C10.2599 7.53223 10.4793 7.40701 10.6595 7.23658C10.8396 7.06615 10.9752 6.85554 11.0548 6.62265C11.0776 6.57556 11.1122 6.53488 11.1553 6.50435C11.1984 6.47383 11.2486 6.45443 11.3013 6.44796C11.354 6.44149 11.4075 6.44815 11.4569 6.46733C11.5063 6.48651 11.55 6.51758 11.584 6.55769C12.0891 7.23439 12.4278 8.01666 12.5737 8.8433C12.7197 9.66993 12.6688 10.5185 12.4251 11.3226C12.2502 11.9076 11.9485 12.4484 11.5407 12.9081C11.1328 13.3678 10.6286 13.7354 10.0625 13.9858C9.24781 14.3238 8.36467 14.4724 7.48189 14.4201C6.59912 14.3678 5.74059 14.1159 4.97326 13.6842C2.3885 12.1856 2.23256 8.87752 4.0849 6.83143Z" fill="url(#paint25_linear_7450_9101)"/>
<path d="M4.0849 6.78969C5.47887 5.2586 7.13274 4.88743 6.87285 3.30067C6.86409 3.24538 6.86942 3.18882 6.88836 3.13605C6.90729 3.08327 6.93925 3.03593 6.98138 2.99824C7.0235 2.96056 7.07448 2.93371 7.12975 2.92009C7.18503 2.90648 7.24287 2.90652 7.29813 2.92021C9.22134 3.35634 10.4972 5.04054 9.78838 7.31397C9.77705 7.34644 9.77487 7.38133 9.78209 7.41492C9.78931 7.44852 9.80566 7.47957 9.8294 7.50478C9.85314 7.52999 9.88338 7.54842 9.91692 7.55812C9.95047 7.56782 9.98606 7.56842 10.0199 7.55987C10.2599 7.49049 10.4793 7.36526 10.6595 7.19483C10.8396 7.0244 10.9752 6.81379 11.0548 6.5809C11.0772 6.53349 11.1114 6.4924 11.1542 6.46141C11.1971 6.43041 11.2472 6.41053 11.3 6.40359C11.3527 6.39666 11.4064 6.40289 11.456 6.42172C11.5057 6.44054 11.5497 6.47136 11.584 6.51131C12.089 7.18714 12.4277 7.96862 12.5737 8.79451C12.7196 9.62039 12.6688 10.4682 12.4251 11.2716C12.2502 11.8565 11.9485 12.3974 11.5407 12.8571C11.1328 13.3168 10.6286 13.6844 10.0625 13.9348C9.24806 14.2738 8.36476 14.423 7.48179 14.3707C6.59883 14.3184 5.74021 14.0659 4.97326 13.6332C2.3885 12.1438 2.23256 8.83113 4.0849 6.78969Z" fill="url(#paint26_linear_7450_9101)"/>
<path d="M4.0849 6.74794C5.47887 5.21685 7.11384 4.84568 6.87285 3.26356C6.86409 3.20827 6.86942 3.15171 6.88836 3.09894C6.90729 3.04616 6.93925 2.99882 6.98138 2.96114C7.0235 2.92345 7.07448 2.8966 7.12975 2.88298C7.18503 2.86937 7.24287 2.86941 7.29813 2.8831C9.22134 3.31923 10.4972 5.00343 9.78838 7.27686C9.77757 7.30951 9.77573 7.3444 9.78307 7.37798C9.7904 7.41156 9.80664 7.44263 9.83014 7.46807C9.85365 7.4935 9.88358 7.51238 9.9169 7.5228C9.95023 7.53322 9.98577 7.5348 10.0199 7.5274C10.2597 7.45617 10.4787 7.32975 10.6587 7.15867C10.8387 6.98759 10.9745 6.77679 11.0548 6.54379C11.0781 6.49702 11.113 6.45675 11.1563 6.42668C11.1996 6.39661 11.2499 6.37771 11.3026 6.3717C11.3553 6.3657 11.4087 6.37279 11.4578 6.39232C11.507 6.41185 11.5504 6.44319 11.584 6.48348C12.089 7.15931 12.4277 7.94079 12.5737 8.76667C12.7196 9.59256 12.6688 10.4404 12.4251 11.2438C12.2502 11.8287 11.9485 12.3696 11.5407 12.8293C11.1328 13.2889 10.6286 13.6566 10.0625 13.9069C9.24806 14.246 8.36476 14.3952 7.48179 14.3428C6.59883 14.2905 5.74021 14.0381 4.97326 13.6053C2.3885 12.1021 2.23256 8.79402 4.0849 6.74794Z" fill="url(#paint27_linear_7450_9101)"/>
<path d="M4.0849 6.70619C5.47887 5.1751 7.13274 4.80393 6.87285 3.21717C6.86409 3.16188 6.86942 3.10532 6.88836 3.05255C6.90729 2.99978 6.93925 2.95243 6.98138 2.91475C7.0235 2.87706 7.07448 2.85021 7.12975 2.8366C7.18503 2.82298 7.24288 2.82302 7.29813 2.83672C9.22134 3.27285 10.4972 4.95704 9.78838 7.23047C9.77757 7.26313 9.77573 7.29801 9.78307 7.33159C9.7904 7.36517 9.80664 7.39625 9.83014 7.42168C9.85365 7.44711 9.88358 7.46599 9.91691 7.47641C9.95023 7.48683 9.98577 7.48842 10.0199 7.48101C10.2582 7.41116 10.4762 7.28686 10.6561 7.1183C10.8359 6.94975 10.9726 6.74174 11.0548 6.51132C11.0781 6.46455 11.113 6.42428 11.1563 6.39421C11.1996 6.36415 11.2499 6.34524 11.3026 6.33924C11.3553 6.33323 11.4087 6.34032 11.4578 6.35985C11.507 6.37938 11.5504 6.41073 11.584 6.45101C12.0868 7.12521 12.4243 7.90429 12.5702 8.72755C12.7161 9.55082 12.6664 10.396 12.4251 11.1974C12.2502 11.7823 11.9485 12.3232 11.5407 12.7829C11.1328 13.2426 10.6286 13.6102 10.0625 13.8605C9.24806 14.1996 8.36476 14.3488 7.48179 14.2965C6.59883 14.2441 5.74021 13.9917 4.97326 13.559C2.3885 12.0789 2.23256 8.75228 4.0849 6.70619Z" fill="url(#paint28_linear_7450_9101)"/>
<path d="M4.0849 6.66908C5.47887 5.11944 7.11384 4.76218 6.87285 3.17542C6.86409 3.12013 6.86942 3.06357 6.88836 3.0108C6.90729 2.95803 6.93925 2.91068 6.98138 2.873C7.0235 2.83532 7.07448 2.80847 7.12975 2.79485C7.18503 2.78123 7.24287 2.78127 7.29813 2.79497C9.22134 3.2311 10.4972 4.91529 9.78838 7.18872C9.77757 7.22138 9.77573 7.25626 9.78307 7.28984C9.7904 7.32342 9.80664 7.3545 9.83014 7.37993C9.85365 7.40536 9.88358 7.42424 9.9169 7.43466C9.95023 7.44508 9.98577 7.44667 10.0199 7.43926C10.2597 7.36803 10.4787 7.24162 10.6587 7.07054C10.8387 6.89946 10.9745 6.68865 11.0548 6.45566C11.0781 6.40888 11.113 6.36862 11.1563 6.33855C11.1996 6.30848 11.2499 6.28957 11.3026 6.28357C11.3553 6.27757 11.4087 6.28465 11.4578 6.30418C11.507 6.32371 11.5504 6.35506 11.584 6.39534C12.0883 7.07063 12.4266 7.85131 12.5725 8.67632C12.7184 9.50133 12.668 10.3483 12.4251 11.151C12.2502 11.7359 11.9485 12.2768 11.5407 12.7365C11.1328 13.1962 10.6286 13.5638 10.0625 13.8141C9.24806 14.1532 8.36476 14.3024 7.48179 14.2501C6.59883 14.1977 5.74021 13.9453 4.97326 13.5126C2.3885 12.0186 2.23256 8.71053 4.0849 6.66908Z" fill="url(#paint29_linear_7450_9101)"/>
<path d="M4.08485 6.62727C5.47883 5.09155 7.1327 4.72501 6.8728 3.13361C6.86405 3.07832 6.86937 3.02177 6.88831 2.96899C6.90725 2.91622 6.93921 2.86888 6.98134 2.83119C7.02346 2.79351 7.07444 2.76666 7.12971 2.75304C7.18498 2.73942 7.24283 2.73947 7.29808 2.75316C9.2213 3.18929 10.4971 4.87348 9.78834 7.14691C9.77752 7.17957 9.77569 7.21446 9.78302 7.24803C9.79036 7.28161 9.8066 7.31269 9.8301 7.33812C9.8536 7.36355 9.88353 7.38244 9.91686 7.39286C9.95019 7.40327 9.98573 7.40486 10.0199 7.39745C10.2597 7.32622 10.4787 7.19981 10.6587 7.02873C10.8386 6.85765 10.9744 6.64684 11.0547 6.41385C11.0781 6.36708 11.113 6.32681 11.1563 6.29674C11.1996 6.26667 11.2499 6.24777 11.3026 6.24176C11.3553 6.23576 11.4086 6.24284 11.4578 6.26237C11.507 6.2819 11.5504 6.31325 11.584 6.35353C12.089 7.02937 12.4277 7.81085 12.5736 8.63673C12.7196 9.46261 12.6687 10.3105 12.4251 11.1138C12.2502 11.6988 11.9484 12.2396 11.5406 12.6993C11.1328 13.159 10.6285 13.5266 10.0624 13.777C9.24446 14.1191 8.35662 14.2695 7.46919 14.2164C6.58176 14.1632 5.71913 13.908 4.94959 13.4708C2.38846 11.9768 2.23252 8.66872 4.08485 6.62727Z" fill="url(#paint30_linear_7450_9101)"/>
<path d="M4.0849 6.58557C5.47887 5.04984 7.13274 4.68331 6.87285 3.09191C6.86528 3.03686 6.87143 2.98082 6.89076 2.92862C6.9101 2.87641 6.94205 2.82959 6.98388 2.79218C7.0257 2.75477 7.07614 2.72788 7.13088 2.71382C7.18561 2.69976 7.243 2.69895 7.29813 2.71146C9.22134 3.14758 10.4972 4.83178 9.78838 7.10521C9.77757 7.13787 9.77573 7.17275 9.78307 7.20633C9.7904 7.23991 9.80664 7.27099 9.83014 7.29642C9.85365 7.32185 9.88358 7.34073 9.9169 7.35115C9.95023 7.36157 9.98577 7.36316 10.0199 7.35575C10.2597 7.28452 10.4787 7.15811 10.6587 6.98703C10.8387 6.81594 10.9745 6.60514 11.0548 6.37214C11.0781 6.32537 11.113 6.2851 11.1563 6.25503C11.1996 6.22497 11.2499 6.20606 11.3026 6.20006C11.3553 6.19405 11.4087 6.20114 11.4578 6.22067C11.507 6.2402 11.5504 6.27155 11.584 6.31183C12.089 6.98766 12.4277 7.76915 12.5737 8.59503C12.7196 9.42091 12.6688 10.2688 12.4251 11.0721C12.2502 11.6571 11.9485 12.1979 11.5407 12.6576C11.1328 13.1173 10.6286 13.4849 10.0625 13.7353C9.24806 14.0743 8.36476 14.2235 7.48179 14.1712C6.59883 14.1189 5.74021 13.8664 4.97326 13.4337C2.3885 11.9351 2.23256 8.62702 4.0849 6.58557Z" fill="url(#paint31_linear_7450_9101)"/>
<path d="M4.0849 6.54378C5.47887 5.00805 7.11384 4.65544 6.87285 3.05012C6.86497 2.99518 6.87095 2.93919 6.89027 2.88705C6.9096 2.83492 6.94167 2.78824 6.98367 2.75113C7.02567 2.71402 7.07631 2.6876 7.13114 2.67421C7.18597 2.66081 7.24331 2.66084 7.29813 2.67431C9.22134 3.10579 10.4972 4.78999 9.78838 7.06342C9.77757 7.09608 9.77573 7.13096 9.78307 7.16454C9.7904 7.19812 9.80664 7.2292 9.83014 7.25463C9.85365 7.28006 9.88358 7.29894 9.9169 7.30936C9.95023 7.31978 9.98577 7.32137 10.0199 7.31396C10.2601 7.24342 10.4794 7.11725 10.6595 6.94607C10.8396 6.7749 10.9752 6.56373 11.0548 6.33035C11.0781 6.28358 11.113 6.24331 11.1563 6.21324C11.1996 6.18318 11.2499 6.16427 11.3026 6.15827C11.3553 6.15226 11.4087 6.15935 11.4578 6.17888C11.507 6.19841 11.5504 6.22976 11.584 6.27004C12.089 6.94587 12.4277 7.72736 12.5737 8.55324C12.7196 9.37912 12.6688 10.227 12.4251 11.0303C12.2497 11.6156 11.9478 12.1568 11.5401 12.6172C11.1324 13.0776 10.6284 13.4462 10.0625 13.6981C9.24746 14.0354 8.36411 14.1833 7.48134 14.1301C6.59856 14.077 5.74021 13.8244 4.97326 13.3919C2.3885 11.8933 2.23256 8.58523 4.0849 6.54378Z" fill="url(#paint32_linear_7450_9101)"/>
<path d="M4.0849 6.51131C5.47887 4.97558 7.13274 4.60905 6.87285 3.01765C6.86497 2.96271 6.87095 2.90672 6.89027 2.85458C6.9096 2.80245 6.94167 2.75577 6.98367 2.71866C7.02567 2.68155 7.07631 2.65513 7.13114 2.64173C7.18597 2.62834 7.24331 2.62837 7.29813 2.64184C9.22134 3.07332 10.4972 4.75752 9.78838 7.03095C9.77757 7.06361 9.77573 7.09849 9.78307 7.13207C9.7904 7.16565 9.80664 7.19673 9.83014 7.22216C9.85365 7.24759 9.88358 7.26647 9.9169 7.27689C9.95023 7.28731 9.98577 7.2889 10.0199 7.28149C10.2601 7.21095 10.4794 7.08478 10.6595 6.9136C10.8396 6.74242 10.9752 6.53125 11.0548 6.29788C11.0781 6.25111 11.113 6.21084 11.1563 6.18077C11.1996 6.15071 11.2499 6.1318 11.3026 6.1258C11.3553 6.11979 11.4087 6.12688 11.4578 6.14641C11.507 6.16594 11.5504 6.19728 11.584 6.23757C12.089 6.9134 12.4277 7.69488 12.5737 8.52077C12.7196 9.34665 12.6688 10.1945 12.4251 10.9979C12.2497 11.5831 11.9478 12.1244 11.5401 12.5847C11.1324 13.0451 10.6284 13.4138 10.0625 13.6657C9.24746 14.0029 8.36411 14.1508 7.48134 14.0977C6.59856 14.0446 5.74021 13.7919 4.97326 13.3594C2.3885 11.8562 2.23256 8.54348 4.0849 6.51131Z" fill="url(#paint33_linear_7450_9101)"/>
</g>
<g style="mix-blend-mode:screen">
<path d="M10.8617 13.2945C11.1027 11.1092 9.41579 11.3691 9.27875 9.35545C9.27875 9.0678 9.33073 8.08883 8.53687 8.34401C3.38625 9.97253 3.44296 16.0134 7.92258 15.9252C8.66002 15.9313 9.37258 15.6636 9.91758 15.1758C10.4626 14.688 10.7998 14.0161 10.8617 13.2945Z" fill="#DBB47D"/>
<path opacity="0.95" d="M10.8192 13.2852C11.0413 11.1324 9.42991 11.3459 9.22672 9.40184C9.19365 9.10491 9.22672 8.15378 8.43759 8.41824C3.53742 10.0468 3.48544 15.7906 7.85638 15.8834C8.59844 15.9178 9.32461 15.6649 9.87868 15.179C10.4328 14.6931 10.7705 14.0131 10.8192 13.2852Z" fill="#CDA975"/>
<path opacity="0.9" d="M10.7776 13.276C10.976 11.151 9.43559 11.318 9.17569 9.4436C9.13316 9.14667 9.14261 8.21409 8.33931 8.49247C3.68485 10.1164 3.52891 15.7211 7.79589 15.8463C8.53656 15.886 9.26357 15.6391 9.82098 15.1586C10.3784 14.6781 10.7218 14.0022 10.7776 13.276Z" fill="#C09E6D"/>
<path opacity="0.85" d="M10.735 13.2667C10.8957 11.151 9.44028 11.2902 9.12368 9.49001C9.07171 9.18379 9.0528 8.27442 8.24004 8.56208C3.8313 10.1767 3.57141 15.5865 7.72971 15.7907C8.09656 15.8223 8.46616 15.7819 8.81688 15.6716C9.1676 15.5613 9.49239 15.3834 9.77224 15.1484C10.0521 14.9134 10.2814 14.6259 10.4467 14.3028C10.612 13.9797 10.71 13.6274 10.735 13.2667Z" fill="#B29266"/>
<path opacity="0.8" d="M10.6903 13.2573C10.8368 11.1926 9.43807 11.2668 9.06949 9.54553C9.00334 9.23931 8.95608 8.3485 8.12442 8.65936C3.95668 10.2461 3.59755 15.4704 7.65189 15.7766C8.02232 15.8203 8.39795 15.7887 8.75539 15.6837C9.11283 15.5787 9.4444 15.4025 9.72945 15.1661C10.0145 14.9298 10.2469 14.6383 10.4122 14.3099C10.5775 13.9815 10.6722 13.6232 10.6903 13.2573Z" fill="#A4875E"/>
<path opacity="0.75" d="M10.6499 13.2481C10.7727 11.2113 9.43545 11.2392 9.01962 9.57817C8.94401 9.26268 8.86368 8.39506 8.04147 8.71984C4.11944 10.2834 3.66108 15.3267 7.58784 15.7211C7.95745 15.7754 8.33455 15.7529 8.69474 15.655C9.05493 15.5572 9.39019 15.3862 9.67882 15.153C9.96745 14.9199 10.203 14.6299 10.3703 14.3018C10.5376 13.9737 10.6328 13.6147 10.6499 13.2481Z" fill="#977C56"/>
<path opacity="0.7" d="M10.6079 13.2389C10.7119 11.2299 9.42657 11.2114 8.96821 9.61996C8.87843 9.30447 8.76974 8.45077 7.94754 8.79411C4.25705 10.3252 3.69473 15.2154 7.54116 15.684C8.76502 15.8325 10.5134 15.1829 10.6079 13.2389Z" fill="#89714E"/>
<path opacity="0.65" d="M10.5636 13.2297C10.6439 11.2532 9.41061 11.1836 8.91445 9.66177C8.81049 9.34163 8.67818 8.51113 7.84652 8.87302C4.39703 10.367 3.74966 15.1041 7.47795 15.6423C8.72544 15.8232 10.488 15.1644 10.5636 13.2297Z" fill="#7B6546"/>
<path opacity="0.6" d="M10.5277 13.2201C10.5796 11.2715 9.39358 11.1601 8.86435 9.70791C8.74621 9.37849 8.58555 8.57119 7.74917 8.947C4.53593 10.3992 3.79406 14.9786 7.41839 15.6003C8.68951 15.8137 10.471 15.1502 10.5277 13.2201Z" fill="#6E5A3F"/>
<path opacity="0.55" d="M10.4842 13.2109C10.5172 11.2947 9.37372 11.1509 8.8114 9.75901C8.67909 9.4296 8.49008 8.63622 7.64897 9.03059C4.672 10.4225 3.83562 14.8998 7.35127 15.5725C8.65074 15.7906 10.4511 15.1364 10.4842 13.2109Z" fill="#604F37"/>
<path opacity="0.5" d="M10.4222 13.2017C10.4222 11.3134 9.33068 11.1139 8.74001 9.79623C8.5888 9.46217 8.37616 8.68271 7.53032 9.10028C4.7849 10.4551 3.85874 14.7885 7.27043 15.5216C8.61715 15.7907 10.4222 15.1179 10.4222 13.2017Z" fill="#52442F"/>
<path opacity="0.45" d="M10.4215 13.1924C10.4215 11.3366 9.34408 11.0907 8.72979 9.83798C8.5644 9.49928 8.32341 8.73374 7.47285 9.17451C4.95896 10.4736 3.94302 14.6911 7.25075 15.4798C8.57857 15.7907 10.4215 15.104 10.4215 13.1924Z" fill="#443827"/>
<path opacity="0.4" d="M10.3569 13.1831C10.3239 11.3551 9.29847 11.0721 8.65582 9.88435C8.47153 9.54101 8.18329 8.78939 7.35163 9.24871C5.06456 10.4921 3.95884 14.5982 7.16262 15.438C8.53296 15.7906 10.39 15.0854 10.3569 13.1831Z" fill="#372D1F"/>
<path opacity="0.35" d="M10.3126 13.1785C10.2559 11.3737 9.26362 11.0536 8.60207 9.93079C8.39888 9.58745 8.12953 8.84511 7.25535 9.33227C5.19037 10.5061 3.99486 14.5055 7.11359 15.4009C8.49811 15.7907 10.3693 15.0715 10.3126 13.1785Z" fill="#292217"/>
<path opacity="0.3" d="M10.2719 13.1692C10.1963 11.3969 9.23709 11.035 8.55192 9.96788C8.32983 9.62454 8.0085 8.88684 7.15794 9.40184C5.31506 10.5154 4.03449 14.4173 7.03981 15.3592C8.46214 15.7906 10.3523 15.0529 10.2719 13.1692Z" fill="#1B1710"/>
<path opacity="0.25" d="M10.2299 13.1598C10.1354 11.4153 9.20451 11.0209 8.50044 10.0141C8.25945 9.66612 7.90505 8.93306 7.08284 9.4759C5.43369 10.5245 4.06807 14.329 6.97415 15.3265C8.42011 15.7905 10.3339 15.0388 10.2299 13.1598Z" fill="#0E0B08"/>
<path opacity="0.2" d="M10.1864 13.1507C10.073 11.4387 9.17514 11.0118 8.44744 10.0561C8.18755 9.71272 7.80007 8.97038 6.95896 9.55497C5.54136 10.5293 4.10013 14.2457 6.9117 15.2803C8.37656 15.8185 10.3139 15.0205 10.1864 13.1507Z" fill="black"/>
</g>
</g>
<defs>
<linearGradient id="paint0_linear_7450_9101" x1="7.74306" y1="2.11754" x2="7.74306" y2="14.9044" gradientUnits="userSpaceOnUse">
<stop stop-color="#FFAA82"/>
<stop offset="0.6" stop-color="#FF5963"/>
<stop offset="1" stop-color="#FD3682"/>
</linearGradient>
<linearGradient id="paint1_linear_7450_9101" x1="8.3354" y1="9.30685" x2="7.39165" y2="15.6507" gradientUnits="userSpaceOnUse">
<stop stop-color="#FFC87A"/>
<stop offset="1" stop-color="#FF9854"/>
</linearGradient>
<linearGradient id="paint2_linear_7450_9101" x1="7.74231" y1="15.09" x2="7.74231" y2="10.8911" gradientUnits="userSpaceOnUse">
<stop stop-color="#FFFBFB"/>
<stop offset="1" stop-color="#FFFDFD"/>
</linearGradient>
<linearGradient id="paint3_linear_7450_9101" x1="7.74231" y1="15.0576" x2="7.74231" y2="10.8587" gradientUnits="userSpaceOnUse">
<stop stop-color="#FEF8F6"/>
<stop offset="1" stop-color="#FFFCFB"/>
</linearGradient>
<linearGradient id="paint4_linear_7450_9101" x1="7.74227" y1="15.0251" x2="7.74227" y2="10.8308" gradientUnits="userSpaceOnUse">
<stop stop-color="#FEF4F2"/>
<stop offset="1" stop-color="#FEFAF9"/>
</linearGradient>
<linearGradient id="paint5_linear_7450_9101" x1="7.74227" y1="14.9973" x2="7.74227" y2="10.7984" gradientUnits="userSpaceOnUse">
<stop stop-color="#FDF0ED"/>
<stop offset="1" stop-color="#FEF9F7"/>
</linearGradient>
<linearGradient id="paint6_linear_7450_9101" x1="7.74231" y1="14.9647" x2="7.74231" y2="10.7658" gradientUnits="userSpaceOnUse">
<stop stop-color="#FDECE9"/>
<stop offset="1" stop-color="#FEF7F5"/>
</linearGradient>
<linearGradient id="paint7_linear_7450_9101" x1="7.74231" y1="14.9323" x2="7.74231" y2="10.738" gradientUnits="userSpaceOnUse">
<stop stop-color="#FCE9E4"/>
<stop offset="1" stop-color="#FEF5F3"/>
</linearGradient>
<linearGradient id="paint8_linear_7450_9101" x1="7.74231" y1="14.9044" x2="7.74231" y2="10.7055" gradientUnits="userSpaceOnUse">
<stop stop-color="#FCE5E0"/>
<stop offset="1" stop-color="#FEF4F1"/>
</linearGradient>
<linearGradient id="paint9_linear_7450_9101" x1="7.74231" y1="14.872" x2="7.74231" y2="10.6731" gradientUnits="userSpaceOnUse">
<stop stop-color="#FBE1DB"/>
<stop offset="1" stop-color="#FEF2F0"/>
</linearGradient>
<linearGradient id="paint10_linear_7450_9101" x1="7.74231" y1="14.8395" x2="7.74231" y2="10.6452" gradientUnits="userSpaceOnUse">
<stop stop-color="#FBDDD7"/>
<stop offset="1" stop-color="#FDF0EE"/>
</linearGradient>
<linearGradient id="paint11_linear_7450_9101" x1="7.74231" y1="14.8117" x2="7.74231" y2="10.6128" gradientUnits="userSpaceOnUse">
<stop stop-color="#FADAD2"/>
<stop offset="1" stop-color="#FDEFEC"/>
</linearGradient>
<linearGradient id="paint12_linear_7450_9101" x1="7.74231" y1="14.7792" x2="7.74231" y2="10.5803" gradientUnits="userSpaceOnUse">
<stop stop-color="#FAD6CE"/>
<stop offset="1" stop-color="#FDEDEA"/>
</linearGradient>
<linearGradient id="paint13_linear_7450_9101" x1="7.74231" y1="14.7467" x2="7.74231" y2="10.5525" gradientUnits="userSpaceOnUse">
<stop stop-color="#F9D2C9"/>
<stop offset="1" stop-color="#FDECE8"/>
</linearGradient>
<linearGradient id="paint14_linear_7450_9101" x1="7.74231" y1="14.7189" x2="7.74231" y2="10.52" gradientUnits="userSpaceOnUse">
<stop stop-color="#F9CEC5"/>
<stop offset="1" stop-color="#FDEAE6"/>
</linearGradient>
<linearGradient id="paint15_linear_7450_9101" x1="7.74231" y1="14.6864" x2="7.74231" y2="10.4875" gradientUnits="userSpaceOnUse">
<stop stop-color="#F8CBC0"/>
<stop offset="1" stop-color="#FCE8E4"/>
</linearGradient>
<linearGradient id="paint16_linear_7450_9101" x1="7.74231" y1="14.6539" x2="7.74231" y2="10.4596" gradientUnits="userSpaceOnUse">
<stop stop-color="#F8C7BC"/>
<stop offset="1" stop-color="#FCE7E2"/>
</linearGradient>
<linearGradient id="paint17_linear_7450_9101" x1="7.74231" y1="14.626" x2="7.74231" y2="10.4272" gradientUnits="userSpaceOnUse">
<stop stop-color="#F7C3B7"/>
<stop offset="1" stop-color="#FCE5E0"/>
</linearGradient>
<linearGradient id="paint18_linear_7450_9101" x1="7.74231" y1="14.5843" x2="7.74231" y2="10.3947" gradientUnits="userSpaceOnUse">
<stop stop-color="#F8C3B7"/>
<stop offset="1" stop-color="#FCE5DF"/>
</linearGradient>
<linearGradient id="paint19_linear_7450_9101" x1="7.74227" y1="14.5425" x2="7.74227" y2="10.3622" gradientUnits="userSpaceOnUse">
<stop stop-color="#F8C2B7"/>
<stop offset="1" stop-color="#FCE4DF"/>
</linearGradient>
<linearGradient id="paint20_linear_7450_9101" x1="7.74231" y1="14.5008" x2="7.74231" y2="10.3344" gradientUnits="userSpaceOnUse">
<stop stop-color="#F9C2B6"/>
<stop offset="1" stop-color="#FDE4DE"/>
</linearGradient>
<linearGradient id="paint21_linear_7450_9101" x1="7.74231" y1="14.459" x2="7.74231" y2="10.3019" gradientUnits="userSpaceOnUse">
<stop stop-color="#F9C2B6"/>
<stop offset="1" stop-color="#FDE3DE"/>
</linearGradient>
<linearGradient id="paint22_linear_7450_9101" x1="7.74231" y1="14.4173" x2="7.74231" y2="10.2694" gradientUnits="userSpaceOnUse">
<stop stop-color="#FAC1B6"/>
<stop offset="1" stop-color="#FDE3DD"/>
</linearGradient>
<linearGradient id="paint23_linear_7450_9101" x1="7.74231" y1="14.3755" x2="7.74231" y2="10.2369" gradientUnits="userSpaceOnUse">
<stop stop-color="#FAC1B5"/>
<stop offset="1" stop-color="#FDE2DD"/>
</linearGradient>
<linearGradient id="paint24_linear_7450_9101" x1="7.74231" y1="14.3337" x2="7.74231" y2="10.2045" gradientUnits="userSpaceOnUse">
<stop stop-color="#FBC1B5"/>
<stop offset="1" stop-color="#FDE2DC"/>
</linearGradient>
<linearGradient id="paint25_linear_7450_9101" x1="7.74231" y1="14.292" x2="7.74231" y2="10.1766" gradientUnits="userSpaceOnUse">
<stop stop-color="#FBC1B5"/>
<stop offset="1" stop-color="#FEE1DC"/>
</linearGradient>
<linearGradient id="paint26_linear_7450_9101" x1="7.74231" y1="14.2502" x2="7.74231" y2="10.1442" gradientUnits="userSpaceOnUse">
<stop stop-color="#FCC0B5"/>
<stop offset="1" stop-color="#FEE1DB"/>
</linearGradient>
<linearGradient id="paint27_linear_7450_9101" x1="7.74231" y1="14.2085" x2="7.74231" y2="10.1117" gradientUnits="userSpaceOnUse">
<stop stop-color="#FCC0B4"/>
<stop offset="1" stop-color="#FEE0DA"/>
</linearGradient>
<linearGradient id="paint28_linear_7450_9101" x1="7.74231" y1="14.1668" x2="7.74231" y2="10.0792" gradientUnits="userSpaceOnUse">
<stop stop-color="#FDC0B4"/>
<stop offset="1" stop-color="#FEE0DA"/>
</linearGradient>
<linearGradient id="paint29_linear_7450_9101" x1="7.74231" y1="14.125" x2="7.74231" y2="10.0467" gradientUnits="userSpaceOnUse">
<stop stop-color="#FDBFB4"/>
<stop offset="1" stop-color="#FEDFD9"/>
</linearGradient>
<linearGradient id="paint30_linear_7450_9101" x1="7.74227" y1="14.0832" x2="7.74227" y2="10.0189" gradientUnits="userSpaceOnUse">
<stop stop-color="#FEBFB4"/>
<stop offset="1" stop-color="#FEDFD9"/>
</linearGradient>
<linearGradient id="paint31_linear_7450_9101" x1="7.74231" y1="14.0415" x2="7.74231" y2="9.98643" gradientUnits="userSpaceOnUse">
<stop stop-color="#FEBFB3"/>
<stop offset="1" stop-color="#FFDED8"/>
</linearGradient>
<linearGradient id="paint32_linear_7450_9101" x1="7.74231" y1="13.9997" x2="7.74231" y2="9.95392" gradientUnits="userSpaceOnUse">
<stop stop-color="#FFBEB3"/>
<stop offset="1" stop-color="#FFDED8"/>
</linearGradient>
<linearGradient id="paint33_linear_7450_9101" x1="7.74231" y1="13.958" x2="7.74231" y2="9.92145" gradientUnits="userSpaceOnUse">
<stop stop-color="#FFBEB3"/>
<stop offset="1" stop-color="#FFDDD7"/>
</linearGradient>
</defs>
</svg>
