<svg width="193" height="26" viewBox="0 0 193 26" fill="none" xmlns="http://www.w3.org/2000/svg">
<path d="M86.504 14.484V10.676H83.8V8.82C88.216 8.82 92.488 8.788 96.92 8.292V10.148C96.008 10.244 95.112 10.324 94.216 10.404V14.484H92.2V10.516C90.968 10.58 89.752 10.628 88.52 10.644V14.484H86.504ZM84.28 3.956C84.28 2.228 85.688 0.82 87.416 0.82H93.304C95.032 0.82 96.44 2.228 96.44 3.956C96.44 5.684 95.032 7.092 93.304 7.092H87.416C85.688 7.092 84.28 5.684 84.28 3.956ZM86.296 3.956C86.296 4.724 86.872 5.3 87.64 5.3H93.08C93.848 5.3 94.424 4.724 94.424 3.956C94.424 3.188 93.848 2.612 93.08 2.612H87.64C86.872 2.612 86.296 3.188 86.296 3.956ZM99.3188 14.644V9.012H101.335V9.924H108.983V9.012H110.999V13.796C107.303 14.42 103.383 14.58 99.3188 14.644ZM98.9988 8.212V3.524H104.503V2.58H98.9988V0.82H106.519V5.22H101.015V6.404C103.271 6.308 105.799 6.084 107.799 5.732V7.492C105.175 7.956 101.655 8.18 98.9988 8.212ZM101.335 12.804C103.959 12.74 106.519 12.612 108.983 12.292V11.684H101.335V12.804ZM107.159 4.74V2.884H108.919V0.499999H110.999V8.436H108.919V4.74H107.159ZM117.062 0.98L119.606 10.196L122.15 0.98H125.654V13.62H123.574V3.428L120.774 13.62H118.438L115.638 3.428V13.62H113.558V0.98H117.062ZM132.253 0.98C134.589 0.98 137.021 2.596 137.021 5.668V8.932C137.021 12.004 134.589 13.62 132.253 13.62H127.901V0.98H132.253ZM130.013 11.7H132.253C133.709 11.7 134.909 10.74 134.909 8.932V5.668C134.909 3.86 133.709 2.9 132.253 2.9H130.013V11.7ZM141.138 9.092V13.62H139.026V0.98H143.714C145.81 0.98 147.474 2.212 147.474 4.452C147.474 6.212 146.466 7.444 144.898 8.196C146.018 9.812 147.042 11.988 147.554 13.62H145.186C144.738 12.308 143.906 10.516 142.802 8.884C142.274 8.98 141.714 9.06 141.138 9.092ZM141.138 7.172C144.306 6.948 145.362 5.78 145.362 4.532C145.362 3.492 144.674 2.9 143.65 2.9H141.138V7.172ZM149.721 10.788H159.545V10.1H149.721V8.564H161.561V12.26H151.737V13.108C155.001 13.092 158.425 12.996 161.721 12.628V14.164C157.737 14.612 153.561 14.644 149.721 14.644V10.788ZM149.081 7.764V6.132H162.201V7.764H149.081ZM149.641 2.388V0.82H161.641V2.388H159.657V3.764H161.561V5.332H149.721V3.764H151.625V2.388H149.641ZM153.641 3.764H157.641V2.388H153.641V3.764ZM171.256 8.66V0.563999H173.24V3.684H174.264V0.499999H176.28V9.94H174.264V5.476H173.24V8.66H171.256ZM164.28 8.5V3.716H168.184V2.548H164.28V0.82H170.136V5.38H166.232V6.724C167.72 6.66 169.272 6.564 170.616 6.388V8.116C168.664 8.372 166.232 8.468 164.28 8.5ZM164.6 14.484V12.596C166.808 12.532 169.56 11.412 169.56 9.908V9.3H171.64V9.908C171.64 11.412 174.392 12.532 176.6 12.596V14.484C174.584 14.436 171.816 13.524 170.6 11.988C169.384 13.524 166.616 14.436 164.6 14.484ZM179.159 14.644V9.492H190.999V13.796C187.159 14.452 182.999 14.596 179.159 14.644ZM178.519 8.596V6.836H184.039V5.812H179.159V4.148H181.063V2.484H179.079V0.82H191.079V2.484H189.095V4.148H190.999V5.812H186.119V6.836H191.639V8.596H178.519ZM181.175 12.916C183.751 12.852 186.407 12.724 188.983 12.404V11.188H181.175V12.916ZM183.079 4.148H187.079V2.484H183.079V4.148Z" fill="white"/>
<path d="M85.5469 24.5V19.5508H88.5479V20.0977H86.1621V21.752H88.3906V22.292H86.1621V23.9531H88.582V24.5H85.5469ZM92.5488 19.5508H93.164V22.8252C93.164 23.8438 92.4052 24.5889 91.2363 24.5889C90.0673 24.5889 89.3086 23.8438 89.3086 22.8252V19.5508H89.9238V22.7773C89.9238 23.4951 90.4228 24.0146 91.2363 24.0146C92.0566 24.0146 92.5488 23.4951 92.5488 22.7773V19.5508ZM95.5946 19.5508H96.3329L98.0009 23.625H98.0624L99.7304 19.5508H100.469V24.5H99.8876V20.7607H99.8397L98.3016 24.5H97.7548L96.2167 20.7607H96.1757V24.5H95.5946V19.5508ZM102.89 24.5H101.352V19.5508H102.952C104.394 19.5508 105.249 20.4805 105.249 22.0186C105.249 23.5635 104.394 24.5 102.89 24.5ZM101.968 23.9531H102.849C104.066 23.9531 104.647 23.2217 104.647 22.0186C104.647 20.8223 104.066 20.0977 102.911 20.0977H101.968V23.9531ZM105.941 24.5V19.5508H107.623C108.785 19.5508 109.311 20.1934 109.311 21.0752C109.311 21.728 109.017 22.2441 108.388 22.4629L109.503 24.5H108.785L107.753 22.5723L107.63 22.5791H106.556V24.5H105.941ZM106.556 22.0186H107.602C108.388 22.0186 108.703 21.6631 108.703 21.0752C108.703 20.4805 108.388 20.0977 107.596 20.0977H106.556V22.0186ZM111.537 24.5V19.5508H113.218C114.381 19.5508 114.907 20.2412 114.907 21.123C114.907 21.998 114.381 22.7021 113.225 22.7021H112.152V24.5H111.537ZM112.152 22.1553H113.198C113.984 22.1553 114.299 21.7109 114.299 21.123C114.299 20.5283 113.984 20.0977 113.191 20.0977H112.152V22.1553ZM115.558 24.5V19.5508H116.174V23.9531H118.47V24.5H115.558ZM119.6 24.5H118.958L120.769 19.5508H121.419L123.23 24.5H122.581L122.089 23.1055H120.099L119.6 24.5ZM120.284 22.5654H121.897L121.111 20.3506H121.07L120.284 22.5654ZM122.836 20.0977V19.5508H126.568V20.0977H125.016V24.5H124.394V20.0977H122.836ZM127.178 24.5V19.5508H130.159V20.0977H127.794V21.752H129.933V22.292H127.794V24.5H127.178ZM135.048 22.0254C135.048 23.5908 134.126 24.5684 132.861 24.5684C131.589 24.5684 130.673 23.5908 130.673 22.0254C130.673 20.46 131.589 19.4824 132.861 19.4824C134.126 19.4824 135.048 20.46 135.048 22.0254ZM134.454 22.0254C134.454 20.7471 133.756 20.0566 132.861 20.0566C131.965 20.0566 131.268 20.7471 131.268 22.0254C131.268 23.3037 131.965 23.9941 132.861 23.9941C133.756 23.9941 134.454 23.3037 134.454 22.0254ZM135.741 24.5V19.5508H137.422C138.584 19.5508 139.111 20.1934 139.111 21.0752C139.111 21.728 138.817 22.2441 138.188 22.4629L139.302 24.5H138.584L137.552 22.5723L137.429 22.5791H136.356V24.5H135.741ZM136.356 22.0186H137.402C138.188 22.0186 138.502 21.6631 138.502 21.0752C138.502 20.4805 138.188 20.0977 137.395 20.0977H136.356V22.0186ZM139.789 19.5508H140.528L142.196 23.625H142.257L143.925 19.5508H144.664V24.5H144.082V20.7607H144.035L142.497 24.5H141.95L140.412 20.7607H140.371V24.5H139.789V19.5508Z" fill="white"/>
<mask id="mask0_7447_2295" style="mask-type:luminance" maskUnits="userSpaceOnUse" x="53" y="13" width="16" height="12">
<path d="M56.4516 13.9277C56.162 15.1784 55.4643 16.429 54.9113 17.4164C54.5296 18.101 53.5027 18.7329 53.0156 19.2989C54.2399 21.3 56.9519 22.4716 57.0704 22.5375C59.1636 23.538 61.4411 24.0514 63.8502 24.0646C63.8897 24.0382 63.916 24.0251 63.9555 23.9988C67.7075 21.6949 68.7212 19.5491 68.8923 18.1273C68.7475 18.825 68.3394 19.5096 67.7075 19.9835C67.3915 20.2205 66.9966 20.3785 66.5621 20.4969C65.7196 20.7207 64.7849 20.7602 64.3373 20.7866C64.2188 20.7866 64.1135 20.7866 64.0082 20.7866C63.1656 20.7866 62.3231 20.6549 61.5069 20.3916C60.559 20.0757 59.3479 19.4174 58.2157 18.0746C57.1099 16.7713 56.6754 14.665 56.5569 13.9409H56.4648L56.4516 13.9277Z" fill="white"/>
</mask>
<g mask="url(#mask0_7447_2295)">
<path d="M57.439 6.81402L48.4648 21.2317L64.4472 31.1798L73.4214 16.7622L57.439 6.81402Z" fill="white"/>
</g>
<path d="M1.63243 4.42263C1.75091 2.98767 4.31803 1.8555 6.63502 1.8555C8.54391 1.8555 11.0847 2.5664 11.9536 3.98819C14.2047 7.71381 15.8503 12.2688 17.1931 14.9281C17.2326 14.0987 17.2721 14.1119 17.3248 13.4405L18.3121 1.81601H23.8413L22.1826 21.392C22.1299 22.0239 21.8403 22.5768 21.3532 23.0244C20.8529 23.472 20.2474 23.709 19.576 23.709H16.785C16.785 23.709 8.78088 7.05557 8.3596 6.33151C8.16213 6.09455 7.38541 6.08138 7.35909 6.37101C7.2801 7.35836 6.24008 19.8649 6.00312 22.6689C5.97679 23.0112 5.73982 23.7353 5.04209 23.7353H0L1.63243 4.42263Z" fill="white"/>
<path d="M25.6719 23.7352L27.5281 1.84229H33.3732L31.7145 21.4182C31.6618 22.0501 31.3854 22.6031 30.8851 23.0507C30.3848 23.4983 29.7793 23.7352 29.1079 23.7352H25.685H25.6719Z" fill="white"/>
<path d="M73.0767 13.5326C71.9446 12.532 70.0883 11.6632 68.061 10.9391C66.7182 10.4783 65.4938 9.93859 64.8224 9.37251C64.2037 8.85909 63.9272 8.18769 64.0062 7.35831C64.0326 7.05552 64.1247 6.73956 64.2695 6.42361C64.7961 5.29144 66.7313 4.98865 67.8108 4.98865C69.1931 4.98865 70.9045 5.21246 72.8661 6.04183C73.1425 6.16032 74.3274 6.29196 74.8671 5.06764C75.4464 3.76433 75.9993 2.25039 75.9993 2.25039C75.9993 2.25039 72.2079 1.5 68.1663 1.5C66.7971 1.5 64.3485 1.67114 63.2953 1.96077C60.0436 2.85597 58.4902 4.50156 58.2401 7.42413C58.1084 8.9644 58.951 10.531 60.2279 11.5842C61.4391 12.5847 63.0847 13.4272 65.1252 14.0723C66.3759 14.5068 67.6265 15.0728 68.2189 15.6521C68.8772 16.2972 69.0747 17.2319 68.8903 18.1139C68.7192 19.5488 67.6002 21.7474 63.8483 24.0512H63.8746C65.5992 24.0512 67.3632 23.8537 68.4822 23.5378C69.7066 23.1955 70.8914 22.7216 71.7339 22.116C72.5896 21.5236 73.4058 20.8258 73.8666 20.0228C74.3274 19.2329 74.6038 18.3772 74.6697 17.5083C74.8013 15.9285 74.2747 14.5857 73.0767 13.5326Z" fill="white"/>
<mask id="mask1_7447_2295" style="mask-type:luminance" maskUnits="userSpaceOnUse" x="40" y="2" width="17" height="22">
<path d="M51.3301 12.0186C51.0141 14.3751 50.1716 16.8106 48.3549 18.6142C46.8673 20.1018 44.4844 20.5889 41.7067 20.5889C41.5355 20.5889 41.1669 20.5889 40.9826 20.5757C40.9826 20.5757 40.8905 20.9706 40.9036 21.4972C40.9563 23.5378 42.128 23.7352 42.128 23.7352C44.1422 23.7352 45.9852 23.6563 47.723 23.1955C53.002 21.7869 56.517 17.4952 56.9646 12.2688C57.2674 8.74061 54.6081 5.72589 52.6334 4.22511C51.9357 3.71169 50.9878 3.10611 50.1321 2.76382C51.1458 4.34359 51.8435 9.2672 51.3301 12.0186Z" fill="white"/>
</mask>
<g mask="url(#mask1_7447_2295)">
<path d="M42.6223 -2.27536L34.4317 21.5118L55.5302 28.7766L63.7208 4.98944L42.6223 -2.27536Z" fill="white"/>
</g>
<path d="M43.786 1.6976C43.786 1.6976 43.6807 1.6976 43.628 1.6976C40.8108 1.6976 39.0335 1.86874 38.0067 2.02672C36.8745 2.19786 36.7955 2.69812 36.7297 3.21155C36.7297 3.21155 35.3474 19.1277 35.2157 21.2341C35.0841 23.3404 37.6512 23.7354 37.6512 23.7354H42.667C42.5353 23.7354 42.3905 23.7354 42.2457 23.7354C42.2457 23.7354 41.074 23.5379 41.0214 21.4974C41.0214 21.0893 41.074 20.747 41.1004 20.6285L42.4037 5.21258C42.4695 5.1336 42.9961 5.05461 43.47 5.05461C45.2736 5.05461 47.1298 5.1336 48.5911 5.9893C46.8797 3.88295 44.7207 2.32951 43.786 1.71077" fill="white"/>
<mask id="mask2_7447_2295" style="mask-type:luminance" maskUnits="userSpaceOnUse" x="43" y="1" width="9" height="12">
<path d="M43.7866 1.69774C44.7213 2.31648 46.8803 3.86992 48.5917 5.97627C48.9735 6.20007 49.329 6.46337 49.6449 6.80565C51.3827 8.63555 51.3037 12.1374 51.3168 12.0057C51.8303 9.25429 51.251 4.39651 50.2373 2.80357C49.6976 2.57977 49.1183 2.39547 48.5127 2.25065C47.0251 1.88204 45.4322 1.69774 43.7734 1.68457L43.7866 1.69774Z" fill="white"/>
</mask>
<g mask="url(#mask2_7447_2295)">
<path d="M51.842 1.69775H43.7852V12.1374H51.842V1.69775Z" fill="white"/>
</g>
</svg>
