<svg width="14" height="197" viewBox="0 0 14 197" fill="none" xmlns="http://www.w3.org/2000/svg">
<path opacity="0.3" d="M3.39537 5.03405L3.39537 3.47908L9.48248 1.84827L0.816406 1.84827L0.816406 0.350194L12.6872 0.350194L12.6872 2.22753L5.32959 4.25656L12.6872 6.2856L12.6872 8.16293L0.816406 8.16293L0.816406 6.66486L9.50144 6.66486L3.39537 5.03405ZM8.24989 22.6677L10.7909 22.6677C11.0185 22.6677 11.1639 22.6298 11.2271 22.554C11.3029 22.4781 11.3408 22.3264 11.3408 22.0989L11.3408 19.3113L12.6872 19.3113L12.6872 22.6298C12.6872 23.2366 12.5418 23.6791 12.2511 23.9572C11.9729 24.248 11.5621 24.3934 11.0185 24.3934L8.24989 24.3934L8.24989 22.6677ZM2.7127 22.6677L8.68603 22.6677L8.68603 24.3934L2.48515 24.3934C1.94154 24.3934 1.52436 24.248 1.23359 23.9572C0.955467 23.6791 0.816405 23.2366 0.816405 22.6298L0.816405 19.3113L2.16278 19.3113L2.16278 22.0989C2.16278 22.3264 2.2007 22.4781 2.27655 22.554C2.35241 22.6298 2.49779 22.6677 2.7127 22.6677ZM12.6872 18.4959L12.6872 20.2215L0.816405 20.2215L0.816405 18.4959L12.6872 18.4959ZM7.52929 38.5471L10.753 38.5471C10.9806 38.5471 11.1259 38.5092 11.1891 38.4333C11.265 38.3701 11.3029 38.2184 11.3029 37.9782L11.3029 34.8303L12.6872 34.8303L12.6872 38.4902C12.6872 39.1096 12.5418 39.5584 12.2511 39.8366C11.9729 40.1273 11.5621 40.2727 11.0185 40.2727L7.30174 40.2727C6.74549 40.2727 6.32198 40.1273 6.03122 39.8366C5.7531 39.5584 5.61403 39.1096 5.61403 38.4902L5.61403 35.4372L6.97937 35.4372L6.97937 37.9782C6.97937 38.2184 7.01729 38.3701 7.09315 38.4333C7.169 38.5092 7.31438 38.5471 7.52929 38.5471ZM12.6872 34.6028L12.6872 36.3095L0.816405 36.3095L0.816405 34.6028L12.6872 34.6028ZM6.2967 36.9921L6.2967 38.7367L0.816404 40.8795L0.816404 39.0212L6.2967 36.9921ZM12.6872 65.7508L12.6872 67.3247L0.816403 67.3247L0.816403 65.5991L9.3687 63.096L0.816403 63.096L0.816404 61.522L12.6872 61.522L12.6872 63.3235L4.36248 65.7508L12.6872 65.7508ZM8.17403 79.1089L2.7127 79.1089C2.49779 79.1089 2.3524 79.1469 2.27655 79.2227C2.2007 79.2986 2.16277 79.4503 2.16277 79.6778L2.16277 80.1519L0.816403 80.1519L0.816403 79.2037C0.816403 78.5969 0.955465 78.1481 1.23359 77.8574C1.52435 77.5793 1.94154 77.4402 2.48514 77.4402L8.38262 77.4402C8.93887 77.4402 9.35606 77.5793 9.63418 77.8574C9.92495 78.1481 10.0703 78.5969 10.0703 79.2037L10.0703 80.2467L8.72396 80.2467L8.72396 79.6778C8.72396 79.4503 8.68603 79.2986 8.61018 79.2227C8.54697 79.1469 8.40159 79.1089 8.17403 79.1089ZM5.15892 81.1569L8.17403 81.1569C8.40159 81.1569 8.54697 81.119 8.61018 81.0432C8.68603 80.9799 8.72396 80.8346 8.72396 80.607L8.72396 80.0002L10.0703 80.0002L10.0703 81.0621C10.0703 81.6816 9.92495 82.1304 9.63418 82.4085C9.35606 82.6993 8.93887 82.8446 8.38262 82.8446L5.15892 82.8446L5.15892 81.1569ZM2.73166 81.119L3.49018 81.119L3.49018 82.7877L2.48514 82.7877C1.94154 82.7877 1.52435 82.6487 1.23359 82.3706C0.955464 82.0924 0.816403 81.6436 0.816403 81.0242L0.816403 80.0002L2.16277 80.0002L2.16277 80.5501C2.16277 80.7903 2.2007 80.942 2.27655 81.0052C2.3524 81.0811 2.50411 81.119 2.73166 81.119ZM6.16396 82.8446L4.9124 82.8446L4.9124 78.047L6.16396 78.047L6.16396 82.8446ZM10.0703 100.397L10.0703 102.009L0.816402 100.302L0.816402 98.0459L7.81373 96.946L0.816402 95.8462L0.816402 93.5896L10.0703 91.9019L10.0703 93.5137L2.27655 94.7463L10.0703 95.941L10.0703 97.97L2.27655 99.1268L10.0703 100.397ZM2.67477 114.359L4.21077 114.359C4.43833 114.359 4.58371 114.321 4.64692 114.245C4.72277 114.182 4.7607 114.03 4.7607 113.79L4.7607 112.823C4.7607 112.203 4.89976 111.754 5.17788 111.476C5.46865 111.198 5.88583 111.059 6.42944 111.059L8.38262 111.059C8.93887 111.059 9.35606 111.198 9.63418 111.476C9.92494 111.767 10.0703 112.216 10.0703 112.823L10.0703 114.207C10.0703 114.826 9.92494 115.275 9.63418 115.553C9.35606 115.844 8.93887 115.99 8.38262 115.99L7.49136 115.99L7.49136 114.321L8.21196 114.321C8.43951 114.321 8.58489 114.283 8.6481 114.207C8.72396 114.144 8.76188 113.992 8.76188 113.752L8.76188 113.297C8.76188 113.069 8.72396 112.918 8.6481 112.842C8.58489 112.766 8.43951 112.728 8.21196 112.728L6.61907 112.728C6.39151 112.728 6.23981 112.766 6.16396 112.842C6.10075 112.918 6.06914 113.069 6.06914 113.297L6.06914 114.283C6.06914 114.89 5.92376 115.332 5.63299 115.61C5.35487 115.888 4.93768 116.027 4.38144 116.027L2.48514 116.027C1.94154 116.027 1.52435 115.882 1.23359 115.591C0.955463 115.313 0.816401 114.871 0.816401 114.264L0.816401 112.861C0.816401 112.254 0.955463 111.805 1.23359 111.514C1.52435 111.236 1.94154 111.097 2.48514 111.097L3.39536 111.097L3.39536 112.785L2.67477 112.785C2.45986 112.785 2.31448 112.823 2.23862 112.899C2.16277 112.974 2.12485 113.12 2.12485 113.335L2.12485 113.79C2.12485 114.03 2.16277 114.182 2.23862 114.245C2.31448 114.321 2.45986 114.359 2.67477 114.359ZM0.816401 127.527L0.816401 125.82L13.5026 125.82L13.5026 127.527L0.816401 127.527ZM8.17403 139.151L2.7127 139.151C2.49778 139.151 2.3524 139.189 2.27655 139.265C2.2007 139.341 2.16277 139.492 2.16277 139.72L2.16277 140.194L0.8164 140.194L0.8164 139.246C0.8164 138.639 0.955462 138.19 1.23359 137.9C1.52435 137.621 1.94154 137.482 2.48514 137.482L8.38262 137.482C8.93887 137.482 9.35605 137.621 9.63418 137.9C9.92494 138.19 10.0703 138.639 10.0703 139.246L10.0703 140.289L8.72396 140.289L8.72396 139.72C8.72396 139.492 8.68603 139.341 8.61018 139.265C8.54697 139.189 8.40158 139.151 8.17403 139.151ZM5.15892 141.199L8.17403 141.199C8.40158 141.199 8.54697 141.161 8.61018 141.085C8.68603 141.022 8.72396 140.877 8.72396 140.649L8.72396 140.042L10.0703 140.042L10.0703 141.104C10.0703 141.724 9.92494 142.173 9.63418 142.451C9.35605 142.741 8.93887 142.887 8.38262 142.887L5.15892 142.887L5.15892 141.199ZM2.73166 141.161L3.49018 141.161L3.49018 142.83L2.48514 142.83C1.94154 142.83 1.52435 142.691 1.23359 142.413C0.955462 142.135 0.8164 141.686 0.8164 141.066L0.8164 140.042L2.16277 140.042L2.16277 140.592C2.16277 140.833 2.2007 140.984 2.27655 141.047C2.3524 141.123 2.5041 141.161 2.73166 141.161ZM6.16396 142.887L4.9124 142.887L4.9124 138.089L6.16396 138.089L6.16396 142.887ZM11.6443 154.542L2.82647 154.542C2.61156 154.542 2.46618 154.58 2.39033 154.656C2.31447 154.732 2.27655 154.877 2.27655 155.092L2.27655 155.813L0.816399 155.813L0.816399 154.599C0.816399 153.979 0.955461 153.524 1.23358 153.234C1.52435 152.955 1.94154 152.816 2.48514 152.816L11.6443 152.816L11.6443 154.542ZM10.0703 155.813L8.68603 155.813L8.68603 151.944L10.0703 151.944L10.0703 155.813ZM11.6443 167.02L2.82647 167.02C2.61156 167.02 2.46618 167.058 2.39032 167.134C2.31447 167.21 2.27655 167.355 2.27655 167.57L2.27655 168.291L0.816399 168.291L0.816399 167.077C0.816399 166.458 0.955461 166.002 1.23358 165.712C1.52435 165.434 1.94153 165.295 2.48514 165.295L11.6443 165.295L11.6443 167.02ZM10.0703 168.291L8.68603 168.291L8.68603 164.422L10.0703 164.422L10.0703 168.291ZM8.17403 179.271L2.71269 179.271C2.49778 179.271 2.3524 179.309 2.27655 179.385C2.20069 179.46 2.16277 179.612 2.16277 179.84L2.16277 180.314L0.816398 180.314L0.816398 179.366C0.816398 178.759 0.95546 178.31 1.23358 178.019C1.52435 177.741 1.94153 177.602 2.48514 177.602L8.38262 177.602C8.93887 177.602 9.35605 177.741 9.63418 178.019C9.92494 178.31 10.0703 178.759 10.0703 179.366L10.0703 180.409L8.72395 180.409L8.72395 179.84C8.72395 179.612 8.68603 179.46 8.61018 179.385C8.54697 179.309 8.40158 179.271 8.17403 179.271ZM5.15892 181.319L8.17403 181.319C8.40158 181.319 8.54697 181.281 8.61018 181.205C8.68603 181.142 8.72395 180.996 8.72395 180.769L8.72395 180.162L10.0703 180.162L10.0703 181.224C10.0703 181.843 9.92494 182.292 9.63418 182.57C9.35605 182.861 8.93887 183.006 8.38262 183.006L5.15892 183.006L5.15892 181.319ZM2.73166 181.281L3.49018 181.281L3.49018 182.95L2.48514 182.95C1.94153 182.95 1.52435 182.811 1.23358 182.532C0.95546 182.254 0.816398 181.805 0.816398 181.186L0.816398 180.162L2.16277 180.162L2.16277 180.712C2.16277 180.952 2.20069 181.104 2.27655 181.167C2.3524 181.243 2.5041 181.281 2.73166 181.281ZM6.16395 183.006L4.9124 183.006L4.9124 178.209L6.16395 178.209L6.16395 183.006ZM10.0893 196.387L8.59121 196.387L8.59121 195.705C8.59121 194.908 8.12978 194.51 7.20692 194.51L6.80869 194.51L6.80869 194.434L8.42055 194.434C8.68603 194.434 8.94519 194.491 9.19803 194.605C9.46351 194.731 9.67842 194.908 9.84277 195.136C10.0071 195.376 10.0893 195.667 10.0893 196.008L10.0893 196.387ZM0.816398 194.51L0.816398 192.803L10.0703 192.803L10.0703 194.51L8.34469 194.51L0.816398 194.51Z" fill="white"/>
</svg>
