<svg width="24" height="24" viewBox="0 0 24 24" fill="none" xmlns="http://www.w3.org/2000/svg">
<path d="M21.1406 4.33561C21.1406 4.33561 19.3449 5.32902 18.7938 5.16345C18.7938 5.16345 17.586 4 15.9372 4C14.2885 4 12.1346 5.24847 12.1346 7.83043C12.1346 7.83043 12.0795 8.33161 12.231 8.55087C12.231 8.55087 7.7487 8.99388 4.24918 4.73834C4.24918 4.73834 2.49023 7.55747 5.40191 9.62035C5.40191 9.62035 4.65332 9.96938 3.72103 9.28921C3.72103 9.28921 3.54651 12.0188 6.77967 12.9586C6.77967 12.9586 6.11835 13.2897 5.0988 13.1062C5.0988 13.1062 5.62694 15.5181 8.65344 15.6479C8.65344 15.6479 6.68782 17.5273 3 17.232C3 17.232 9.14484 21.8947 16.4286 16.0909C16.4286 16.0909 19.8134 13.2539 19.795 7.70513C19.795 7.70513 21.1957 6.80122 21.6871 5.86152C21.6871 5.86152 20.9707 6.48799 19.5699 6.28662C19.5699 6.28662 21.0625 5.27532 21.1406 4.33561Z" fill="#29ADE3"/>
</svg>
