<svg width="196" height="26" viewBox="0 0 196 26" fill="none" xmlns="http://www.w3.org/2000/svg">
<path d="M92.632 8.2H88.552C85.928 8.2 84.36 6.808 84.36 4.648C84.36 2.488 85.928 1.096 88.552 1.096H92.632C95.256 1.096 96.84 2.488 96.84 4.648C96.84 6.808 95.256 8.2 92.632 8.2ZM86.424 15.144V11.288H83.48V9.448H97.72V11.288H94.776V15.144H92.504V11.288H88.696V15.144H86.424ZM88.472 6.376H92.728C93.896 6.376 94.664 5.656 94.664 4.648C94.664 3.64 93.896 2.92 92.728 2.92H88.472C87.304 2.92 86.536 3.64 86.536 4.648C86.536 5.656 87.304 6.376 88.472 6.376ZM100.043 15.08V9.24H102.219V10.392H109.707V9.24H111.883V15.08H100.043ZM99.0031 8.44V3.832H104.907V2.712H99.0031V1.016H107.083V5.48H101.179V6.744H108.427V8.44H99.0031ZM109.707 8.76V5.192H107.563V3.24H109.707V0.855999H111.883V8.76H109.707ZM102.219 13.352H109.707V12.12H102.219V13.352ZM114.526 13.896V1.48H117.662L120.606 11.352L123.55 1.48H126.686V13.896H124.574V4.248H124.526L121.758 13.56H119.454L116.686 4.248H116.638V13.896H114.526ZM128.933 13.896V1.48H133.493C136.725 1.48 138.453 3.368 138.453 6.168V9.208C138.453 12.008 136.725 13.896 133.493 13.896H128.933ZM131.109 12.136H133.493C135.253 12.136 136.277 11.048 136.277 9.288V6.088C136.277 4.328 135.253 3.24 133.493 3.24H131.109V12.136ZM140.448 13.896V1.48H145.088C147.696 1.48 149.408 2.84 149.408 5.208C149.408 6.52 148.88 7.512 147.984 8.152C148.656 8.584 149.088 9.352 149.088 10.392V13.896H146.912V10.68C146.912 9.56 146.528 8.936 145.456 8.936H142.624V13.896H140.448ZM142.624 7.176H144.624C145.92 7.176 147.248 6.824 147.248 5.208C147.248 3.592 145.92 3.24 144.624 3.24H142.624V7.176ZM151.895 15.08V11.224H161.847V10.616H151.895V9H164.055V12.776H154.103V13.464H164.375V15.08H151.895ZM151.655 5.704V4.008H153.735V2.616H151.815V0.919999H164.135V2.616H162.215V4.008H164.295V5.704H151.655ZM150.855 8.2V6.488H165.095V8.2H150.855ZM155.911 4.008H160.039V2.616H155.911V4.008ZM166.378 9.24V4.232H170.698V2.712H166.378V1.016H172.778V5.88H168.458V7.544H173.322V9.24H166.378ZM174.122 9.4V0.936H176.17V4.072H177.53V0.855999H179.578V10.52H177.53V6.024H176.17V9.4H174.122ZM167.418 15.24V13.544C170.186 13.304 172.458 11.944 172.458 10.248V9.8H174.698V10.248C174.698 11.944 176.97 13.304 179.738 13.544V15.24C177.29 15.096 174.97 14.2 173.578 12.824C172.186 14.2 169.866 15.096 167.418 15.24ZM181.261 9.144V7.432H187.245V6.344H182.061V4.616H184.141V2.648H182.221V0.919999H194.541V2.648H192.621V4.616H194.701V6.344H189.517V7.432H195.501V9.144H181.261ZM182.301 15.08V9.96H194.461V15.08H182.301ZM184.477 13.352H192.285V11.688H184.477V13.352ZM186.317 4.616H190.445V2.648H186.317V4.616Z" fill="white"/>
<path d="M85.5469 25V20.0508H88.5479V20.5977H86.1621V22.252H88.3906V22.792H86.1621V24.4531H88.582V25H85.5469ZM92.5488 20.0508H93.164V23.3252C93.164 24.3438 92.4052 25.0889 91.2363 25.0889C90.0673 25.0889 89.3086 24.3438 89.3086 23.3252V20.0508H89.9238V23.2773C89.9238 23.9951 90.4228 24.5146 91.2363 24.5146C92.0566 24.5146 92.5488 23.9951 92.5488 23.2773V20.0508ZM95.5946 20.0508H96.3329L98.0009 24.125H98.0624L99.7304 20.0508H100.469V25H99.8876V21.2607H99.8397L98.3016 25H97.7548L96.2167 21.2607H96.1757V25H95.5946V20.0508ZM102.89 25H101.352V20.0508H102.952C104.394 20.0508 105.249 20.9805 105.249 22.5186C105.249 24.0635 104.394 25 102.89 25ZM101.968 24.4531H102.849C104.066 24.4531 104.647 23.7217 104.647 22.5186C104.647 21.3223 104.066 20.5977 102.911 20.5977H101.968V24.4531ZM105.941 25V20.0508H107.623C108.785 20.0508 109.311 20.6934 109.311 21.5752C109.311 22.228 109.017 22.7441 108.388 22.9629L109.503 25H108.785L107.753 23.0723L107.63 23.0791H106.556V25H105.941ZM106.556 22.5186H107.602C108.388 22.5186 108.703 22.1631 108.703 21.5752C108.703 20.9805 108.388 20.5977 107.596 20.5977H106.556V22.5186ZM111.537 25V20.0508H113.218C114.381 20.0508 114.907 20.7412 114.907 21.623C114.907 22.498 114.381 23.2021 113.225 23.2021H112.152V25H111.537ZM112.152 22.6553H113.198C113.984 22.6553 114.299 22.2109 114.299 21.623C114.299 21.0283 113.984 20.5977 113.191 20.5977H112.152V22.6553ZM115.558 25V20.0508H116.174V24.4531H118.47V25H115.558ZM119.6 25H118.958L120.769 20.0508H121.419L123.23 25H122.581L122.089 23.6055H120.099L119.6 25ZM120.284 23.0654H121.897L121.111 20.8506H121.07L120.284 23.0654ZM122.836 20.5977V20.0508H126.568V20.5977H125.016V25H124.394V20.5977H122.836ZM127.178 25V20.0508H130.159V20.5977H127.794V22.252H129.933V22.792H127.794V25H127.178ZM135.048 22.5254C135.048 24.0908 134.126 25.0684 132.861 25.0684C131.589 25.0684 130.673 24.0908 130.673 22.5254C130.673 20.96 131.589 19.9824 132.861 19.9824C134.126 19.9824 135.048 20.96 135.048 22.5254ZM134.454 22.5254C134.454 21.2471 133.756 20.5566 132.861 20.5566C131.965 20.5566 131.268 21.2471 131.268 22.5254C131.268 23.8037 131.965 24.4941 132.861 24.4941C133.756 24.4941 134.454 23.8037 134.454 22.5254ZM135.741 25V20.0508H137.422C138.584 20.0508 139.111 20.6934 139.111 21.5752C139.111 22.228 138.817 22.7441 138.188 22.9629L139.302 25H138.584L137.552 23.0723L137.429 23.0791H136.356V25H135.741ZM136.356 22.5186H137.402C138.188 22.5186 138.502 22.1631 138.502 21.5752C138.502 20.9805 138.188 20.5977 137.395 20.5977H136.356V22.5186ZM139.789 20.0508H140.528L142.196 24.125H142.257L143.925 20.0508H144.664V25H144.082V21.2607H144.035L142.497 25H141.95L140.412 21.2607H140.371V25H139.789V20.0508Z" fill="white"/>
<mask id="mask0_7447_2295" style="mask-type:luminance" maskUnits="userSpaceOnUse" x="53" y="14" width="16" height="11">
<path d="M56.4516 14.4277C56.162 15.6784 55.4643 16.929 54.9113 17.9164C54.5296 18.601 53.5027 19.2329 53.0156 19.7989C54.2399 21.8 56.9519 22.9716 57.0704 23.0375C59.1636 24.038 61.4411 24.5514 63.8502 24.5646C63.8897 24.5382 63.916 24.5251 63.9555 24.4988C67.7075 22.1949 68.7212 20.0491 68.8923 18.6273C68.7475 19.325 68.3394 20.0096 67.7075 20.4835C67.3915 20.7205 66.9966 20.8785 66.5621 20.9969C65.7196 21.2207 64.7849 21.2602 64.3373 21.2866C64.2188 21.2866 64.1135 21.2866 64.0082 21.2866C63.1656 21.2866 62.3231 21.1549 61.5069 20.8916C60.559 20.5757 59.3479 19.9174 58.2157 18.5746C57.1099 17.2713 56.6754 15.165 56.5569 14.4409H56.4648L56.4516 14.4277Z" fill="white"/>
</mask>
<g mask="url(#mask0_7447_2295)">
<path d="M57.439 7.31402L48.4648 21.7317L64.4472 31.6798L73.4214 17.2622L57.439 7.31402Z" fill="white"/>
</g>
<path d="M1.63243 4.92263C1.75091 3.48767 4.31803 2.3555 6.63502 2.3555C8.54391 2.3555 11.0847 3.0664 11.9536 4.48819C14.2047 8.21381 15.8503 12.7688 17.1931 15.4281C17.2326 14.5987 17.2721 14.6119 17.3248 13.9405L18.3121 2.31601H23.8413L22.1826 21.892C22.1299 22.5239 21.8403 23.0768 21.3532 23.5244C20.8529 23.972 20.2474 24.209 19.576 24.209H16.785C16.785 24.209 8.78088 7.55557 8.3596 6.83151C8.16213 6.59455 7.38541 6.58138 7.35909 6.87101C7.2801 7.85836 6.24008 20.3649 6.00312 23.1689C5.97679 23.5112 5.73982 24.2353 5.04209 24.2353H0L1.63243 4.92263Z" fill="white"/>
<path d="M25.6719 24.2352L27.5281 2.34229H33.3732L31.7145 21.9182C31.6618 22.5501 31.3854 23.1031 30.8851 23.5507C30.3848 23.9983 29.7793 24.2352 29.1079 24.2352H25.685H25.6719Z" fill="white"/>
<path d="M73.0767 14.0326C71.9446 13.032 70.0883 12.1632 68.061 11.4391C66.7182 10.9783 65.4938 10.4386 64.8224 9.87251C64.2037 9.35909 63.9272 8.68769 64.0062 7.85831C64.0326 7.55552 64.1247 7.23956 64.2695 6.92361C64.7961 5.79144 66.7313 5.48865 67.8108 5.48865C69.1931 5.48865 70.9045 5.71246 72.8661 6.54183C73.1425 6.66032 74.3274 6.79196 74.8671 5.56764C75.4464 4.26433 75.9993 2.75039 75.9993 2.75039C75.9993 2.75039 72.2079 2 68.1663 2C66.7971 2 64.3485 2.17114 63.2953 2.46077C60.0436 3.35597 58.4902 5.00156 58.2401 7.92413C58.1084 9.4644 58.951 11.031 60.2279 12.0842C61.4391 13.0847 63.0847 13.9272 65.1252 14.5723C66.3759 15.0068 67.6265 15.5728 68.2189 16.1521C68.8772 16.7972 69.0747 17.7319 68.8903 18.6139C68.7192 20.0488 67.6002 22.2474 63.8483 24.5512H63.8746C65.5992 24.5512 67.3632 24.3537 68.4822 24.0378C69.7066 23.6955 70.8914 23.2216 71.7339 22.616C72.5896 22.0236 73.4058 21.3258 73.8666 20.5228C74.3274 19.7329 74.6038 18.8772 74.6697 18.0083C74.8013 16.4285 74.2747 15.0857 73.0767 14.0326Z" fill="white"/>
<mask id="mask1_7447_2295" style="mask-type:luminance" maskUnits="userSpaceOnUse" x="40" y="3" width="17" height="22">
<path d="M51.3301 12.5186C51.0141 14.8751 50.1716 17.3106 48.3549 19.1142C46.8673 20.6018 44.4844 21.0889 41.7067 21.0889C41.5355 21.0889 41.1669 21.0889 40.9826 21.0757C40.9826 21.0757 40.8905 21.4706 40.9036 21.9972C40.9563 24.0378 42.128 24.2352 42.128 24.2352C44.1422 24.2352 45.9852 24.1563 47.723 23.6955C53.002 22.2869 56.517 17.9952 56.9646 12.7688C57.2674 9.24061 54.6081 6.22589 52.6334 4.72511C51.9357 4.21169 50.9878 3.60611 50.1321 3.26382C51.1458 4.84359 51.8435 9.7672 51.3301 12.5186Z" fill="white"/>
</mask>
<g mask="url(#mask1_7447_2295)">
<path d="M42.6223 -1.77536L34.4317 22.0118L55.5302 29.2766L63.7208 5.48944L42.6223 -1.77536Z" fill="white"/>
</g>
<path d="M43.786 2.1976C43.786 2.1976 43.6807 2.1976 43.628 2.1976C40.8108 2.1976 39.0335 2.36874 38.0067 2.52672C36.8745 2.69786 36.7955 3.19812 36.7297 3.71155C36.7297 3.71155 35.3474 19.6277 35.2157 21.7341C35.0841 23.8404 37.6512 24.2354 37.6512 24.2354H42.667C42.5353 24.2354 42.3905 24.2354 42.2457 24.2354C42.2457 24.2354 41.074 24.0379 41.0214 21.9974C41.0214 21.5893 41.074 21.247 41.1004 21.1285L42.4037 5.71258C42.4695 5.6336 42.9961 5.55461 43.47 5.55461C45.2736 5.55461 47.1298 5.6336 48.5911 6.4893C46.8797 4.38295 44.7207 2.82951 43.786 2.21077" fill="white"/>
<mask id="mask2_7447_2295" style="mask-type:luminance" maskUnits="userSpaceOnUse" x="43" y="2" width="9" height="11">
<path d="M43.7866 2.19774C44.7213 2.81648 46.8803 4.36992 48.5917 6.47627C48.9735 6.70007 49.329 6.96337 49.6449 7.30565C51.3827 9.13555 51.3037 12.6374 51.3168 12.5057C51.8303 9.75429 51.251 4.89651 50.2373 3.30357C49.6976 3.07977 49.1183 2.89547 48.5127 2.75065C47.0251 2.38204 45.4322 2.19774 43.7734 2.18457L43.7866 2.19774Z" fill="white"/>
</mask>
<g mask="url(#mask2_7447_2295)">
<path d="M51.842 2.19775H43.7852V12.6374H51.842V2.19775Z" fill="white"/>
</g>
</svg>
